<mxfile host="65bd71144e">
    <diagram id="ACf91cnI5llRDFGSILm7" name="Page-1">
        <mxGraphModel dx="839" dy="683" grid="1" gridSize="10" guides="1" tooltips="1" connect="1" arrows="1" fold="1" page="1" pageScale="1" pageWidth="827" pageHeight="1169" math="0" shadow="0">
            <root>
                <mxCell id="0"/>
                <mxCell id="1" parent="0"/>
                <mxCell id="2" value="" style="strokeWidth=1;shadow=0;dashed=0;align=center;html=1;shape=mxgraph.mockup.containers.browserWindow;rSize=0;strokeColor=#94011A;strokeColor2=#008cff;strokeColor3=#c4c4c4;mainText=,;recursiveResize=0;gradientColor=#94011A;gradientDirection=radial;fontColor=#EEF3F7;labelBackgroundColor=#94011A;labelBorderColor=#94011A;" parent="1" vertex="1">
                    <mxGeometry y="10" width="820" height="1785" as="geometry"/>
                </mxCell>
                <mxCell id="3" value="Page 1" style="strokeWidth=1;shadow=0;dashed=0;align=center;html=1;shape=mxgraph.mockup.containers.anchor;fontSize=17;fontColor=#666666;align=left;" parent="2" vertex="1">
                    <mxGeometry x="60" y="12" width="110" height="26" as="geometry"/>
                </mxCell>
                <mxCell id="4" value="https://www.draw.io" style="strokeWidth=1;shadow=0;dashed=0;align=center;html=1;shape=mxgraph.mockup.containers.anchor;rSize=0;fontSize=17;fontColor=#666666;align=left;" parent="2" vertex="1">
                    <mxGeometry x="130" y="60" width="250" height="26" as="geometry"/>
                </mxCell>
                <mxCell id="58" value="Bichos &lt;br&gt;company" style="html=1;shadow=0;dashed=0;fillColor=#94011A;strokeColor=#3700CC;fontSize=16;fontColor=#ffffff;align=left;spacing=15;" parent="2" vertex="1">
                    <mxGeometry y="110" width="816.5" height="60" as="geometry"/>
                </mxCell>
                <mxCell id="59" value="Inicio " style="fillColor=none;strokeColor=none;fontSize=14;fontColor=#ffffff;align=center;" parent="58" vertex="1">
                    <mxGeometry width="70" height="40" relative="1" as="geometry">
                        <mxPoint x="70" y="10" as="offset"/>
                    </mxGeometry>
                </mxCell>
                <mxCell id="60" value="Compras" style="fillColor=none;strokeColor=none;fontSize=14;fontColor=#F5FAFF;align=center;" parent="58" vertex="1">
                    <mxGeometry width="70" height="40" relative="1" as="geometry">
                        <mxPoint x="140" y="10" as="offset"/>
                    </mxGeometry>
                </mxCell>
                <mxCell id="61" value="Iniciar secion " style="fillColor=none;strokeColor=none;fontSize=14;fontColor=#F3F8FC;align=center;spacingRight=0;" parent="58" vertex="1">
                    <mxGeometry width="80" height="40" relative="1" as="geometry">
                        <mxPoint x="220" y="10" as="offset"/>
                    </mxGeometry>
                </mxCell>
                <mxCell id="62" value="About" style="fillColor=none;strokeColor=none;fontSize=14;fontColor=#EEF3F7;align=center;" parent="58" vertex="1">
                    <mxGeometry width="80" height="40" relative="1" as="geometry">
                        <mxPoint x="310" y="10" as="offset"/>
                    </mxGeometry>
                </mxCell>
                <mxCell id="63" value="&lt;font color=&quot;#ffffff&quot;&gt;Busqueda&lt;/font&gt;" style="html=1;shadow=0;dashed=0;shape=mxgraph.bootstrap.rrect;rSize=5;fontSize=14;fontColor=#1CA5B8;strokeColor=#FFFFFF;fillColor=none;" parent="58" vertex="1">
                    <mxGeometry x="1" width="70" height="40" relative="1" as="geometry">
                        <mxPoint x="-80" y="10" as="offset"/>
                    </mxGeometry>
                </mxCell>
                <mxCell id="64" value="Busqueda" style="html=1;shadow=0;dashed=0;shape=mxgraph.bootstrap.rrect;rSize=5;fontSize=14;fontColor=#6C767D;strokeColor=#CED4DA;fillColor=#ffffff;align=left;spacing=10;" parent="58" vertex="1">
                    <mxGeometry x="1" width="180" height="40" relative="1" as="geometry">
                        <mxPoint x="-270" y="10" as="offset"/>
                    </mxGeometry>
                </mxCell>
                <mxCell id="66" value="" style="html=1;verticalLabelPosition=bottom;align=center;labelBackgroundColor=#ffffff;verticalAlign=top;strokeWidth=2;strokeColor=#0080F0;shadow=0;dashed=0;shape=mxgraph.ios7.icons.shopping_cart;fillColor=#FFFFFF;" parent="58" vertex="1">
                    <mxGeometry x="434.7597402597403" y="18" width="31.81168831168831" height="25.5" as="geometry"/>
                </mxCell>
                <mxCell id="142" value="catalogo" style="text;strokeColor=none;fillColor=none;html=1;fontSize=24;fontStyle=1;verticalAlign=middle;align=center;labelBackgroundColor=#333333;fontFamily=Tahoma;fontColor=#FFFFFF;" parent="2" vertex="1">
                    <mxGeometry x="270" y="170" width="250" height="40" as="geometry"/>
                </mxCell>
                <mxCell id="227" value="8" style="html=1;shadow=0;dashed=0;shape=mxgraph.bootstrap.rrect;rSize=5;strokeColor=none;html=1;whiteSpace=wrap;fillColor=#94011A;fontColor=#ffffff;sketch=0;labelBackgroundColor=#94011A;labelBorderColor=#94011A;fontFamily=Tahoma;fontSize=16;" parent="2" vertex="1">
                    <mxGeometry x="513" y="1640" width="30" height="30" as="geometry"/>
                </mxCell>
                <mxCell id="223" value="" style="html=1;shadow=0;dashed=0;shape=mxgraph.bootstrap.rrect;rSize=5;strokeColor=none;html=1;whiteSpace=wrap;fillColor=#94011A;fontColor=#ffffff;sketch=0;labelBackgroundColor=#94011A;labelBorderColor=#94011A;fontFamily=Tahoma;fontSize=16;" parent="2" vertex="1">
                    <mxGeometry x="423" y="1640" width="90" height="30" as="geometry"/>
                </mxCell>
                <mxCell id="224" value="5" style="strokeColor=inherit;fillColor=inherit;gradientColor=inherit;fontColor=inherit;html=1;shadow=0;dashed=0;shape=mxgraph.bootstrap.leftButton;rSize=5;perimeter=none;whiteSpace=wrap;resizeHeight=1;sketch=0;labelBackgroundColor=#94011A;labelBorderColor=#94011A;fontFamily=Tahoma;fontSize=16;" parent="223" vertex="1">
                    <mxGeometry width="30" height="30" relative="1" as="geometry"/>
                </mxCell>
                <mxCell id="225" value="6" style="strokeColor=inherit;fillColor=inherit;gradientColor=inherit;fontColor=inherit;html=1;shadow=0;dashed=0;perimeter=none;whiteSpace=wrap;resizeHeight=1;sketch=0;labelBackgroundColor=#94011A;labelBorderColor=#94011A;fontFamily=Tahoma;fontSize=16;" parent="223" vertex="1">
                    <mxGeometry width="30" height="30" relative="1" as="geometry">
                        <mxPoint x="30" as="offset"/>
                    </mxGeometry>
                </mxCell>
                <mxCell id="226" value="7" style="strokeColor=inherit;fillColor=inherit;gradientColor=inherit;fontColor=inherit;html=1;shadow=0;dashed=0;shape=mxgraph.bootstrap.rightButton;rSize=5;perimeter=none;whiteSpace=wrap;resizeHeight=1;sketch=0;labelBackgroundColor=#94011A;labelBorderColor=#94011A;fontFamily=Tahoma;fontSize=16;" parent="223" vertex="1">
                    <mxGeometry x="1" width="30" height="30" relative="1" as="geometry">
                        <mxPoint x="-30" as="offset"/>
                    </mxGeometry>
                </mxCell>
                <mxCell id="218" value="" style="html=1;shadow=0;dashed=0;shape=mxgraph.bootstrap.rrect;rSize=5;strokeColor=none;html=1;whiteSpace=wrap;fillColor=#94011A;fontColor=#ffffff;sketch=0;labelBackgroundColor=#94011A;labelBorderColor=#94011A;fontFamily=Tahoma;fontSize=16;" parent="2" vertex="1">
                    <mxGeometry x="303" y="1640" width="120" height="30" as="geometry"/>
                </mxCell>
                <mxCell id="219" value="1" style="strokeColor=inherit;fillColor=inherit;gradientColor=inherit;fontColor=inherit;html=1;shadow=0;dashed=0;shape=mxgraph.bootstrap.leftButton;rSize=5;perimeter=none;whiteSpace=wrap;resizeHeight=1;sketch=0;labelBackgroundColor=#94011A;labelBorderColor=#94011A;fontFamily=Tahoma;fontSize=16;" parent="218" vertex="1">
                    <mxGeometry width="30" height="30" relative="1" as="geometry"/>
                </mxCell>
                <mxCell id="220" value="2" style="strokeColor=inherit;fillColor=inherit;gradientColor=inherit;fontColor=inherit;html=1;shadow=0;dashed=0;perimeter=none;whiteSpace=wrap;resizeHeight=1;sketch=0;labelBackgroundColor=#94011A;labelBorderColor=#94011A;fontFamily=Tahoma;fontSize=16;" parent="218" vertex="1">
                    <mxGeometry width="30" height="30" relative="1" as="geometry">
                        <mxPoint x="30" as="offset"/>
                    </mxGeometry>
                </mxCell>
                <mxCell id="221" value="3" style="strokeColor=inherit;fillColor=inherit;gradientColor=inherit;fontColor=inherit;html=1;shadow=0;dashed=0;perimeter=none;whiteSpace=wrap;resizeHeight=1;sketch=0;labelBackgroundColor=#94011A;labelBorderColor=#94011A;fontFamily=Tahoma;fontSize=16;" parent="218" vertex="1">
                    <mxGeometry width="30" height="30" relative="1" as="geometry">
                        <mxPoint x="60" as="offset"/>
                    </mxGeometry>
                </mxCell>
                <mxCell id="222" value="4" style="strokeColor=inherit;fillColor=inherit;gradientColor=inherit;fontColor=inherit;html=1;shadow=0;dashed=0;shape=mxgraph.bootstrap.rightButton;rSize=5;perimeter=none;whiteSpace=wrap;resizeHeight=1;sketch=0;labelBackgroundColor=#94011A;labelBorderColor=#94011A;fontFamily=Tahoma;fontSize=16;" parent="218" vertex="1">
                    <mxGeometry x="1" width="30" height="30" relative="1" as="geometry">
                        <mxPoint x="-30" as="offset"/>
                    </mxGeometry>
                </mxCell>
                <mxCell id="145" value="" style="html=1;shadow=0;dashed=0;shape=mxgraph.bootstrap.rrect;rSize=5;strokeColor=#DFDFDF;html=1;whiteSpace=wrap;fillColor=#ffffff;labelBackgroundColor=#FFFFFF;fontColor=#FFFFFF;" parent="2" vertex="1">
                    <mxGeometry x="20" y="1220" width="780" height="370" as="geometry"/>
                </mxCell>
                <mxCell id="146" value="&lt;span style=&quot;color: rgb(51 , 51 , 51) ; font-family: &amp;#34;robotoregular&amp;#34; ; font-size: 1.25rem&quot;&gt;Ventilador de techo Westinghouse&lt;/span&gt;&lt;br&gt;&lt;h1 class=&quot;a-product__information--title&quot; style=&quot;box-sizing: border-box ; margin-top: 0px ; margin-bottom: 0.5rem ; font-weight: normal ; font-stretch: normal ; line-height: normal ; color: rgb(51 , 51 , 51) ; font-size: 16px&quot;&gt;&lt;font style=&quot;font-size: 16px&quot;&gt;&lt;br&gt;&lt;/font&gt;&lt;/h1&gt;&lt;h1 class=&quot;a-product__information--title&quot; style=&quot;box-sizing: border-box ; margin-top: 0px ; margin-bottom: 0.5rem ; font-weight: normal ; font-stretch: normal ; line-height: normal ; color: rgb(51 , 51 , 51) ; font-size: 16px&quot;&gt;&lt;font style=&quot;font-size: 16px&quot;&gt;Material:&lt;span style=&quot;font-family: &amp;#34;robotoregular&amp;#34;&quot;&gt;&amp;nbsp;&lt;/span&gt;metal color níquel&lt;/font&gt;&lt;/h1&gt;&lt;div style=&quot;font-size: 16px&quot;&gt;&lt;font style=&quot;font-size: 16px&quot;&gt;precio:&amp;nbsp;&lt;/font&gt;&lt;/div&gt;&lt;font style=&quot;font-size: 16px&quot;&gt;&lt;span style=&quot;color: rgb(255 , 0 , 0) ; font-family: &amp;#34;robotoregular&amp;#34;&quot;&gt;$&lt;/span&gt;&lt;span style=&quot;color: rgb(255 , 0 , 0) ; font-family: &amp;#34;robotoregular&amp;#34;&quot;&gt;4,649&lt;/span&gt;&lt;/font&gt;" style="html=1;shadow=0;dashed=0;shape=mxgraph.bootstrap.leftButton;rSize=5;strokeColor=#DFDFDF;html=1;whiteSpace=wrap;fillColor=#ffffff;fontColor=#000000;verticalAlign=top;align=left;spacing=20;spacingBottom=0;fontSize=14;spacingTop=160;labelBackgroundColor=#FFFFFF;" parent="145" vertex="1">
                    <mxGeometry width="260" height="370" relative="1" as="geometry"/>
                </mxCell>
                <mxCell id="147" value="" style="html=1;shadow=0;dashed=0;shape=mxgraph.basic.corner_round_rect;dx=2;perimeter=none;whiteSpace=wrap;fillColor=#868E96;strokeColor=#DFDFDF;fontColor=#DEE2E6;resizeWidth=1;fontSize=18;labelBackgroundColor=#FFFFFF;" parent="146" vertex="1">
                    <mxGeometry width="260" height="160" relative="1" as="geometry"/>
                </mxCell>
                <mxCell id="148" value="" style="html=1;shadow=0;dashed=0;shape=mxgraph.basic.corner_round_rect;dx=2;flipV=1;perimeter=none;whiteSpace=wrap;fillColor=#F7F7F7;strokeColor=#DFDFDF;fontColor=#6C767D;resizeWidth=1;fontSize=13;align=left;spacing=20;labelBackgroundColor=#FFFFFF;" parent="146" vertex="1">
                    <mxGeometry y="1" width="260" height="50" relative="1" as="geometry">
                        <mxPoint y="-50" as="offset"/>
                    </mxGeometry>
                </mxCell>
                <mxCell id="149" value="&lt;span style=&quot;&quot;&gt;&lt;font face=&quot;Tahoma&quot;&gt;mas informacion&lt;/font&gt;&lt;/span&gt;" style="rounded=1;fillColor=#94011A;strokeColor=none;html=1;fontColor=#ffffff;align=center;verticalAlign=middle;fontStyle=0;fontSize=12;sketch=0;labelBackgroundColor=#94011A;fontFamily=Helvetica;gradientColor=none;" parent="146" vertex="1">
                    <mxGeometry x="46.5" y="332" width="163.5" height="33" as="geometry"/>
                </mxCell>
                <mxCell id="150" value="&lt;font color=&quot;#333333&quot; face=&quot;robotoregular&quot;&gt;&lt;span style=&quot;font-size: 20px&quot;&gt;Enfriador evaporativo Dace&lt;/span&gt;&lt;/font&gt;&lt;br&gt;&lt;h1 class=&quot;a-product__information--title&quot; style=&quot;box-sizing: border-box ; margin-top: 0px ; margin-bottom: 0.5rem ; font-weight: normal ; font-stretch: normal ; line-height: normal ; color: rgb(51 , 51 , 51) ; font-size: 16px&quot;&gt;&lt;br&gt;&lt;/h1&gt;&lt;h1 class=&quot;a-product__information--title&quot; style=&quot;box-sizing: border-box ; margin-top: 0px ; margin-bottom: 0.5rem ; font-weight: normal ; font-stretch: normal ; line-height: normal ; color: rgb(51 , 51 , 51) ; font-size: 16px&quot;&gt;Material:&lt;span style=&quot;font-family: &amp;#34;robotoregular&amp;#34;&quot;&gt;&amp;nbsp;&lt;/span&gt;metal color níquel&lt;/h1&gt;&lt;div style=&quot;font-size: 16px&quot;&gt;precio:&amp;nbsp;&lt;/div&gt;&lt;font style=&quot;font-size: 16px&quot;&gt;&lt;span style=&quot;color: rgb(255 , 0 , 0) ; font-family: &amp;#34;robotoregular&amp;#34;&quot;&gt;$&lt;/span&gt;&lt;span style=&quot;color: rgb(255 , 0 , 0) ; font-family: &amp;#34;robotoregular&amp;#34;&quot;&gt;4,649&lt;/span&gt;&lt;/font&gt;" style="html=1;shadow=0;dashed=0;strokeColor=#DFDFDF;html=1;whiteSpace=wrap;fillColor=#ffffff;fontColor=#000000;verticalAlign=top;align=left;spacing=20;spacingBottom=0;fontSize=14;spacingTop=160;labelBackgroundColor=#FFFFFF;" parent="145" vertex="1">
                    <mxGeometry width="260" height="370" relative="1" as="geometry">
                        <mxPoint x="260" as="offset"/>
                    </mxGeometry>
                </mxCell>
                <mxCell id="151" value="" style="html=1;shadow=0;dashed=0;perimeter=none;whiteSpace=wrap;fillColor=#868E96;strokeColor=#DFDFDF;fontColor=#DEE2E6;resizeWidth=1;fontSize=18;labelBackgroundColor=#FFFFFF;" parent="150" vertex="1">
                    <mxGeometry width="260" height="160" relative="1" as="geometry"/>
                </mxCell>
                <mxCell id="152" value="" style="html=1;shadow=0;dashed=0;perimeter=none;whiteSpace=wrap;fillColor=#F7F7F7;strokeColor=#DFDFDF;fontColor=#6C767D;resizeWidth=1;fontSize=13;align=left;spacing=20;labelBackgroundColor=#FFFFFF;" parent="150" vertex="1">
                    <mxGeometry y="1" width="260" height="50" relative="1" as="geometry">
                        <mxPoint y="-50" as="offset"/>
                    </mxGeometry>
                </mxCell>
                <mxCell id="153" value="&lt;span style=&quot;&quot;&gt;&lt;font face=&quot;Tahoma&quot;&gt;mas informacion&lt;/font&gt;&lt;/span&gt;" style="rounded=1;fillColor=#94011A;strokeColor=none;html=1;fontColor=#ffffff;align=center;verticalAlign=middle;fontStyle=0;fontSize=12;sketch=0;labelBackgroundColor=#94011A;fontFamily=Helvetica;gradientColor=none;" parent="150" vertex="1">
                    <mxGeometry x="56.5" y="332" width="163.5" height="33" as="geometry"/>
                </mxCell>
                <mxCell id="154" value="&lt;font color=&quot;#333333&quot; face=&quot;robotoregular&quot;&gt;&lt;span style=&quot;font-size: 20px&quot;&gt;Enfriador evaporativo Dace&lt;/span&gt;&lt;/font&gt;&lt;br&gt;&lt;h1 class=&quot;a-product__information--title&quot; style=&quot;box-sizing: border-box ; margin-top: 0px ; margin-bottom: 0.5rem ; font-weight: normal ; font-stretch: normal ; line-height: normal ; color: rgb(51 , 51 , 51) ; font-size: 16px&quot;&gt;&lt;br&gt;&lt;/h1&gt;&lt;h1 class=&quot;a-product__information--title&quot; style=&quot;box-sizing: border-box ; margin-top: 0px ; margin-bottom: 0.5rem ; font-weight: normal ; font-stretch: normal ; line-height: normal ; color: rgb(51 , 51 , 51) ; font-size: 16px&quot;&gt;Material:&lt;span style=&quot;font-family: &amp;#34;robotoregular&amp;#34;&quot;&gt;&amp;nbsp;&lt;/span&gt;metal color níquel&lt;/h1&gt;&lt;div style=&quot;font-size: 16px&quot;&gt;precio:&amp;nbsp;&lt;/div&gt;&lt;font style=&quot;font-size: 16px&quot;&gt;&lt;span style=&quot;color: rgb(255 , 0 , 0) ; font-family: &amp;#34;robotoregular&amp;#34;&quot;&gt;$&lt;/span&gt;&lt;span style=&quot;color: rgb(255 , 0 , 0) ; font-family: &amp;#34;robotoregular&amp;#34;&quot;&gt;4,649&lt;/span&gt;&lt;/font&gt;" style="html=1;shadow=0;dashed=0;shape=mxgraph.bootstrap.rightButton;rSize=5;strokeColor=#DFDFDF;html=1;whiteSpace=wrap;fillColor=#ffffff;fontColor=#000000;verticalAlign=top;align=left;spacing=20;spacingBottom=0;fontSize=14;spacingTop=160;labelBackgroundColor=#FFFFFF;" parent="145" vertex="1">
                    <mxGeometry x="1" width="260" height="370" relative="1" as="geometry">
                        <mxPoint x="-260" as="offset"/>
                    </mxGeometry>
                </mxCell>
                <mxCell id="155" value="" style="html=1;shadow=0;dashed=0;shape=mxgraph.basic.corner_round_rect;dx=2;flipH=1;perimeter=none;whiteSpace=wrap;fillColor=#868E96;strokeColor=#DFDFDF;fontColor=#DEE2E6;resizeWidth=1;fontSize=18;labelBackgroundColor=#FFFFFF;" parent="154" vertex="1">
                    <mxGeometry width="260" height="160" relative="1" as="geometry"/>
                </mxCell>
                <mxCell id="156" value="" style="html=1;shadow=0;dashed=0;shape=mxgraph.basic.corner_round_rect;dx=2;flipV=1;flipH=1;perimeter=none;whiteSpace=wrap;fillColor=#F7F7F7;strokeColor=#DFDFDF;fontColor=#6C767D;resizeWidth=1;fontSize=13;align=left;spacing=20;labelBackgroundColor=#FFFFFF;" parent="154" vertex="1">
                    <mxGeometry y="1" width="260" height="50" relative="1" as="geometry">
                        <mxPoint y="-50" as="offset"/>
                    </mxGeometry>
                </mxCell>
                <mxCell id="157" value="&lt;span style=&quot;&quot;&gt;&lt;font face=&quot;Tahoma&quot;&gt;mas informacion&lt;/font&gt;&lt;/span&gt;" style="rounded=1;fillColor=#94011A;strokeColor=none;html=1;fontColor=#ffffff;align=center;verticalAlign=middle;fontStyle=0;fontSize=12;sketch=0;labelBackgroundColor=#94011A;fontFamily=Helvetica;gradientColor=none;" parent="154" vertex="1">
                    <mxGeometry x="46" y="330" width="163.5" height="33" as="geometry"/>
                </mxCell>
                <mxCell id="106" value="" style="html=1;shadow=0;dashed=0;shape=mxgraph.bootstrap.rrect;rSize=5;strokeColor=#DFDFDF;html=1;whiteSpace=wrap;fillColor=#ffffff;labelBackgroundColor=#FFFFFF;fontColor=#FFFFFF;" parent="2" vertex="1">
                    <mxGeometry x="20" y="440" width="780" height="370" as="geometry"/>
                </mxCell>
                <mxCell id="107" value="&lt;span style=&quot;color: rgb(51 , 51 , 51) ; font-family: &amp;#34;robotoregular&amp;#34; ; font-size: 1.25rem&quot;&gt;Ventilador de techo Westinghouse&lt;/span&gt;&lt;br&gt;&lt;h1 class=&quot;a-product__information--title&quot; style=&quot;box-sizing: border-box ; margin-top: 0px ; margin-bottom: 0.5rem ; font-weight: normal ; font-stretch: normal ; line-height: normal ; color: rgb(51 , 51 , 51) ; font-size: 16px&quot;&gt;&lt;font style=&quot;font-size: 16px&quot;&gt;&lt;br&gt;&lt;/font&gt;&lt;/h1&gt;&lt;h1 class=&quot;a-product__information--title&quot; style=&quot;box-sizing: border-box ; margin-top: 0px ; margin-bottom: 0.5rem ; font-weight: normal ; font-stretch: normal ; line-height: normal ; color: rgb(51 , 51 , 51) ; font-size: 16px&quot;&gt;&lt;font style=&quot;font-size: 16px&quot;&gt;Material:&lt;span style=&quot;font-family: &amp;#34;robotoregular&amp;#34;&quot;&gt;&amp;nbsp;&lt;/span&gt;metal color níquel&lt;/font&gt;&lt;/h1&gt;&lt;div style=&quot;font-size: 16px&quot;&gt;&lt;font style=&quot;font-size: 16px&quot;&gt;precio:&amp;nbsp;&lt;/font&gt;&lt;/div&gt;&lt;font style=&quot;font-size: 16px&quot;&gt;&lt;span style=&quot;color: rgb(255 , 0 , 0) ; font-family: &amp;#34;robotoregular&amp;#34;&quot;&gt;$&lt;/span&gt;&lt;span style=&quot;color: rgb(255 , 0 , 0) ; font-family: &amp;#34;robotoregular&amp;#34;&quot;&gt;4,649&lt;/span&gt;&lt;/font&gt;" style="html=1;shadow=0;dashed=0;shape=mxgraph.bootstrap.leftButton;rSize=5;strokeColor=#DFDFDF;html=1;whiteSpace=wrap;fillColor=#ffffff;fontColor=#000000;verticalAlign=top;align=left;spacing=20;spacingBottom=0;fontSize=14;spacingTop=160;labelBackgroundColor=#FFFFFF;" parent="106" vertex="1">
                    <mxGeometry width="260" height="370" relative="1" as="geometry"/>
                </mxCell>
                <mxCell id="108" value="" style="html=1;shadow=0;dashed=0;shape=mxgraph.basic.corner_round_rect;dx=2;perimeter=none;whiteSpace=wrap;fillColor=#868E96;strokeColor=#DFDFDF;fontColor=#DEE2E6;resizeWidth=1;fontSize=18;labelBackgroundColor=#FFFFFF;" parent="107" vertex="1">
                    <mxGeometry width="260" height="160" relative="1" as="geometry"/>
                </mxCell>
                <mxCell id="109" value="" style="html=1;shadow=0;dashed=0;shape=mxgraph.basic.corner_round_rect;dx=2;flipV=1;perimeter=none;whiteSpace=wrap;fillColor=#F7F7F7;strokeColor=#DFDFDF;fontColor=#6C767D;resizeWidth=1;fontSize=13;align=left;spacing=20;labelBackgroundColor=#FFFFFF;" parent="107" vertex="1">
                    <mxGeometry y="1" width="260" height="50" relative="1" as="geometry">
                        <mxPoint y="-50" as="offset"/>
                    </mxGeometry>
                </mxCell>
                <mxCell id="116" value="&lt;span style=&quot;&quot;&gt;&lt;font face=&quot;Tahoma&quot;&gt;mas informacion&lt;/font&gt;&lt;/span&gt;" style="rounded=1;fillColor=#94011A;strokeColor=none;html=1;fontColor=#ffffff;align=center;verticalAlign=middle;fontStyle=0;fontSize=12;sketch=0;labelBackgroundColor=#94011A;fontFamily=Helvetica;gradientColor=none;" parent="107" vertex="1">
                    <mxGeometry x="46.5" y="332" width="163.5" height="33" as="geometry"/>
                </mxCell>
                <mxCell id="110" value="&lt;font color=&quot;#333333&quot; face=&quot;robotoregular&quot;&gt;&lt;span style=&quot;font-size: 20px&quot;&gt;Enfriador evaporativo Dace&lt;/span&gt;&lt;/font&gt;&lt;br&gt;&lt;h1 class=&quot;a-product__information--title&quot; style=&quot;box-sizing: border-box ; margin-top: 0px ; margin-bottom: 0.5rem ; font-weight: normal ; font-stretch: normal ; line-height: normal ; color: rgb(51 , 51 , 51) ; font-size: 16px&quot;&gt;&lt;br&gt;&lt;/h1&gt;&lt;h1 class=&quot;a-product__information--title&quot; style=&quot;box-sizing: border-box ; margin-top: 0px ; margin-bottom: 0.5rem ; font-weight: normal ; font-stretch: normal ; line-height: normal ; color: rgb(51 , 51 , 51) ; font-size: 16px&quot;&gt;Material:&lt;span style=&quot;font-family: &amp;#34;robotoregular&amp;#34;&quot;&gt;&amp;nbsp;&lt;/span&gt;metal color níquel&lt;/h1&gt;&lt;div style=&quot;font-size: 16px&quot;&gt;precio:&amp;nbsp;&lt;/div&gt;&lt;font style=&quot;font-size: 16px&quot;&gt;&lt;span style=&quot;color: rgb(255 , 0 , 0) ; font-family: &amp;#34;robotoregular&amp;#34;&quot;&gt;$&lt;/span&gt;&lt;span style=&quot;color: rgb(255 , 0 , 0) ; font-family: &amp;#34;robotoregular&amp;#34;&quot;&gt;4,649&lt;/span&gt;&lt;/font&gt;" style="html=1;shadow=0;dashed=0;strokeColor=#DFDFDF;html=1;whiteSpace=wrap;fillColor=#ffffff;fontColor=#000000;verticalAlign=top;align=left;spacing=20;spacingBottom=0;fontSize=14;spacingTop=160;labelBackgroundColor=#FFFFFF;" parent="106" vertex="1">
                    <mxGeometry width="260" height="370" relative="1" as="geometry">
                        <mxPoint x="260" as="offset"/>
                    </mxGeometry>
                </mxCell>
                <mxCell id="111" value="" style="html=1;shadow=0;dashed=0;perimeter=none;whiteSpace=wrap;fillColor=#868E96;strokeColor=#DFDFDF;fontColor=#DEE2E6;resizeWidth=1;fontSize=18;labelBackgroundColor=#FFFFFF;" parent="110" vertex="1">
                    <mxGeometry width="260" height="160" relative="1" as="geometry"/>
                </mxCell>
                <mxCell id="112" value="" style="html=1;shadow=0;dashed=0;perimeter=none;whiteSpace=wrap;fillColor=#F7F7F7;strokeColor=#DFDFDF;fontColor=#6C767D;resizeWidth=1;fontSize=13;align=left;spacing=20;labelBackgroundColor=#FFFFFF;" parent="110" vertex="1">
                    <mxGeometry y="1" width="260" height="50" relative="1" as="geometry">
                        <mxPoint y="-50" as="offset"/>
                    </mxGeometry>
                </mxCell>
                <mxCell id="117" value="&lt;span style=&quot;&quot;&gt;&lt;font face=&quot;Tahoma&quot;&gt;mas informacion&lt;/font&gt;&lt;/span&gt;" style="rounded=1;fillColor=#94011A;strokeColor=none;html=1;fontColor=#ffffff;align=center;verticalAlign=middle;fontStyle=0;fontSize=12;sketch=0;labelBackgroundColor=#94011A;fontFamily=Helvetica;gradientColor=none;" parent="110" vertex="1">
                    <mxGeometry x="56.5" y="332" width="163.5" height="33" as="geometry"/>
                </mxCell>
                <mxCell id="113" value="&lt;font color=&quot;#333333&quot; face=&quot;robotoregular&quot;&gt;&lt;span style=&quot;font-size: 20px&quot;&gt;Enfriador evaporativo Dace&lt;/span&gt;&lt;/font&gt;&lt;br&gt;&lt;h1 class=&quot;a-product__information--title&quot; style=&quot;box-sizing: border-box ; margin-top: 0px ; margin-bottom: 0.5rem ; font-weight: normal ; font-stretch: normal ; line-height: normal ; color: rgb(51 , 51 , 51) ; font-size: 16px&quot;&gt;&lt;br&gt;&lt;/h1&gt;&lt;h1 class=&quot;a-product__information--title&quot; style=&quot;box-sizing: border-box ; margin-top: 0px ; margin-bottom: 0.5rem ; font-weight: normal ; font-stretch: normal ; line-height: normal ; color: rgb(51 , 51 , 51) ; font-size: 16px&quot;&gt;Material:&lt;span style=&quot;font-family: &amp;#34;robotoregular&amp;#34;&quot;&gt;&amp;nbsp;&lt;/span&gt;metal color níquel&lt;/h1&gt;&lt;div style=&quot;font-size: 16px&quot;&gt;precio:&amp;nbsp;&lt;/div&gt;&lt;font style=&quot;font-size: 16px&quot;&gt;&lt;span style=&quot;color: rgb(255 , 0 , 0) ; font-family: &amp;#34;robotoregular&amp;#34;&quot;&gt;$&lt;/span&gt;&lt;span style=&quot;color: rgb(255 , 0 , 0) ; font-family: &amp;#34;robotoregular&amp;#34;&quot;&gt;4,649&lt;/span&gt;&lt;/font&gt;" style="html=1;shadow=0;dashed=0;shape=mxgraph.bootstrap.rightButton;rSize=5;strokeColor=#DFDFDF;html=1;whiteSpace=wrap;fillColor=#ffffff;fontColor=#000000;verticalAlign=top;align=left;spacing=20;spacingBottom=0;fontSize=14;spacingTop=160;labelBackgroundColor=#FFFFFF;" parent="106" vertex="1">
                    <mxGeometry x="1" width="260" height="370" relative="1" as="geometry">
                        <mxPoint x="-260" as="offset"/>
                    </mxGeometry>
                </mxCell>
                <mxCell id="114" value="" style="html=1;shadow=0;dashed=0;shape=mxgraph.basic.corner_round_rect;dx=2;flipH=1;perimeter=none;whiteSpace=wrap;fillColor=#868E96;strokeColor=#DFDFDF;fontColor=#DEE2E6;resizeWidth=1;fontSize=18;labelBackgroundColor=#FFFFFF;" parent="113" vertex="1">
                    <mxGeometry width="260" height="160" relative="1" as="geometry"/>
                </mxCell>
                <mxCell id="115" value="" style="html=1;shadow=0;dashed=0;shape=mxgraph.basic.corner_round_rect;dx=2;flipV=1;flipH=1;perimeter=none;whiteSpace=wrap;fillColor=#F7F7F7;strokeColor=#DFDFDF;fontColor=#6C767D;resizeWidth=1;fontSize=13;align=left;spacing=20;labelBackgroundColor=#FFFFFF;" parent="113" vertex="1">
                    <mxGeometry y="1" width="260" height="50" relative="1" as="geometry">
                        <mxPoint y="-50" as="offset"/>
                    </mxGeometry>
                </mxCell>
                <mxCell id="143" value="&lt;span style=&quot;&quot;&gt;&lt;font face=&quot;Tahoma&quot;&gt;mas informacion&lt;/font&gt;&lt;/span&gt;" style="rounded=1;fillColor=#94011A;strokeColor=none;html=1;fontColor=#ffffff;align=center;verticalAlign=middle;fontStyle=0;fontSize=12;sketch=0;labelBackgroundColor=#94011A;fontFamily=Helvetica;gradientColor=none;" parent="113" vertex="1">
                    <mxGeometry x="46" y="328" width="163.5" height="33" as="geometry"/>
                </mxCell>
                <mxCell id="118" value="" style="html=1;shadow=0;dashed=0;shape=mxgraph.bootstrap.rrect;rSize=5;strokeColor=#DFDFDF;html=1;whiteSpace=wrap;fillColor=#ffffff;labelBackgroundColor=#FFFFFF;fontColor=#FFFFFF;" parent="2" vertex="1">
                    <mxGeometry x="20" y="830" width="780" height="370" as="geometry"/>
                </mxCell>
                <mxCell id="119" value="&lt;span style=&quot;color: rgb(51 , 51 , 51) ; font-family: &amp;#34;robotoregular&amp;#34; ; font-size: 1.25rem&quot;&gt;Ventilador de techo Westinghouse&lt;/span&gt;&lt;br&gt;&lt;h1 class=&quot;a-product__information--title&quot; style=&quot;box-sizing: border-box ; margin-top: 0px ; margin-bottom: 0.5rem ; font-weight: normal ; font-stretch: normal ; line-height: normal ; color: rgb(51 , 51 , 51) ; font-size: 16px&quot;&gt;&lt;font style=&quot;font-size: 16px&quot;&gt;&lt;br&gt;&lt;/font&gt;&lt;/h1&gt;&lt;h1 class=&quot;a-product__information--title&quot; style=&quot;box-sizing: border-box ; margin-top: 0px ; margin-bottom: 0.5rem ; font-weight: normal ; font-stretch: normal ; line-height: normal ; color: rgb(51 , 51 , 51) ; font-size: 16px&quot;&gt;&lt;font style=&quot;font-size: 16px&quot;&gt;Material:&lt;span style=&quot;font-family: &amp;#34;robotoregular&amp;#34;&quot;&gt;&amp;nbsp;&lt;/span&gt;metal color níquel&lt;/font&gt;&lt;/h1&gt;&lt;div style=&quot;font-size: 16px&quot;&gt;&lt;font style=&quot;font-size: 16px&quot;&gt;precio:&amp;nbsp;&lt;/font&gt;&lt;/div&gt;&lt;font style=&quot;font-size: 16px&quot;&gt;&lt;span style=&quot;color: rgb(255 , 0 , 0) ; font-family: &amp;#34;robotoregular&amp;#34;&quot;&gt;$&lt;/span&gt;&lt;span style=&quot;color: rgb(255 , 0 , 0) ; font-family: &amp;#34;robotoregular&amp;#34;&quot;&gt;4,649&lt;/span&gt;&lt;/font&gt;" style="html=1;shadow=0;dashed=0;shape=mxgraph.bootstrap.leftButton;rSize=5;strokeColor=#DFDFDF;html=1;whiteSpace=wrap;fillColor=#ffffff;fontColor=#000000;verticalAlign=top;align=left;spacing=20;spacingBottom=0;fontSize=14;spacingTop=160;labelBackgroundColor=#FFFFFF;" parent="118" vertex="1">
                    <mxGeometry width="260" height="370" relative="1" as="geometry"/>
                </mxCell>
                <mxCell id="120" value="" style="html=1;shadow=0;dashed=0;shape=mxgraph.basic.corner_round_rect;dx=2;perimeter=none;whiteSpace=wrap;fillColor=#868E96;strokeColor=#DFDFDF;fontColor=#DEE2E6;resizeWidth=1;fontSize=18;labelBackgroundColor=#FFFFFF;" parent="119" vertex="1">
                    <mxGeometry width="260" height="160" relative="1" as="geometry"/>
                </mxCell>
                <mxCell id="121" value="" style="html=1;shadow=0;dashed=0;shape=mxgraph.basic.corner_round_rect;dx=2;flipV=1;perimeter=none;whiteSpace=wrap;fillColor=#F7F7F7;strokeColor=#DFDFDF;fontColor=#6C767D;resizeWidth=1;fontSize=13;align=left;spacing=20;labelBackgroundColor=#FFFFFF;" parent="119" vertex="1">
                    <mxGeometry y="1" width="260" height="50" relative="1" as="geometry">
                        <mxPoint y="-50" as="offset"/>
                    </mxGeometry>
                </mxCell>
                <mxCell id="122" value="&lt;span style=&quot;&quot;&gt;&lt;font face=&quot;Tahoma&quot;&gt;mas informacion&lt;/font&gt;&lt;/span&gt;" style="rounded=1;fillColor=#94011A;strokeColor=none;html=1;fontColor=#ffffff;align=center;verticalAlign=middle;fontStyle=0;fontSize=12;sketch=0;labelBackgroundColor=#94011A;fontFamily=Helvetica;gradientColor=none;" parent="119" vertex="1">
                    <mxGeometry x="46.5" y="332" width="163.5" height="33" as="geometry"/>
                </mxCell>
                <mxCell id="123" value="&lt;font color=&quot;#333333&quot; face=&quot;robotoregular&quot;&gt;&lt;span style=&quot;font-size: 20px&quot;&gt;Enfriador evaporativo Dace&lt;/span&gt;&lt;/font&gt;&lt;br&gt;&lt;h1 class=&quot;a-product__information--title&quot; style=&quot;box-sizing: border-box ; margin-top: 0px ; margin-bottom: 0.5rem ; font-weight: normal ; font-stretch: normal ; line-height: normal ; color: rgb(51 , 51 , 51) ; font-size: 16px&quot;&gt;&lt;br&gt;&lt;/h1&gt;&lt;h1 class=&quot;a-product__information--title&quot; style=&quot;box-sizing: border-box ; margin-top: 0px ; margin-bottom: 0.5rem ; font-weight: normal ; font-stretch: normal ; line-height: normal ; color: rgb(51 , 51 , 51) ; font-size: 16px&quot;&gt;Material:&lt;span style=&quot;font-family: &amp;#34;robotoregular&amp;#34;&quot;&gt;&amp;nbsp;&lt;/span&gt;metal color níquel&lt;/h1&gt;&lt;div style=&quot;font-size: 16px&quot;&gt;precio:&amp;nbsp;&lt;/div&gt;&lt;font style=&quot;font-size: 16px&quot;&gt;&lt;span style=&quot;color: rgb(255 , 0 , 0) ; font-family: &amp;#34;robotoregular&amp;#34;&quot;&gt;$&lt;/span&gt;&lt;span style=&quot;color: rgb(255 , 0 , 0) ; font-family: &amp;#34;robotoregular&amp;#34;&quot;&gt;4,649&lt;/span&gt;&lt;/font&gt;" style="html=1;shadow=0;dashed=0;strokeColor=#DFDFDF;html=1;whiteSpace=wrap;fillColor=#ffffff;fontColor=#000000;verticalAlign=top;align=left;spacing=20;spacingBottom=0;fontSize=14;spacingTop=160;labelBackgroundColor=#FFFFFF;" parent="118" vertex="1">
                    <mxGeometry width="260" height="370" relative="1" as="geometry">
                        <mxPoint x="260" as="offset"/>
                    </mxGeometry>
                </mxCell>
                <mxCell id="124" value="" style="html=1;shadow=0;dashed=0;perimeter=none;whiteSpace=wrap;fillColor=#868E96;strokeColor=#DFDFDF;fontColor=#DEE2E6;resizeWidth=1;fontSize=18;labelBackgroundColor=#FFFFFF;" parent="123" vertex="1">
                    <mxGeometry width="260" height="160" relative="1" as="geometry"/>
                </mxCell>
                <mxCell id="125" value="" style="html=1;shadow=0;dashed=0;perimeter=none;whiteSpace=wrap;fillColor=#F7F7F7;strokeColor=#DFDFDF;fontColor=#6C767D;resizeWidth=1;fontSize=13;align=left;spacing=20;labelBackgroundColor=#FFFFFF;" parent="123" vertex="1">
                    <mxGeometry y="1" width="260" height="50" relative="1" as="geometry">
                        <mxPoint y="-50" as="offset"/>
                    </mxGeometry>
                </mxCell>
                <mxCell id="126" value="&lt;span style=&quot;&quot;&gt;&lt;font face=&quot;Tahoma&quot;&gt;mas informacion&lt;/font&gt;&lt;/span&gt;" style="rounded=1;fillColor=#94011A;strokeColor=none;html=1;fontColor=#ffffff;align=center;verticalAlign=middle;fontStyle=0;fontSize=12;sketch=0;labelBackgroundColor=#94011A;fontFamily=Helvetica;gradientColor=none;" parent="123" vertex="1">
                    <mxGeometry x="56.5" y="332" width="163.5" height="33" as="geometry"/>
                </mxCell>
                <mxCell id="127" value="&lt;font color=&quot;#333333&quot; face=&quot;robotoregular&quot;&gt;&lt;span style=&quot;font-size: 20px&quot;&gt;Enfriador evaporativo Dace&lt;/span&gt;&lt;/font&gt;&lt;br&gt;&lt;h1 class=&quot;a-product__information--title&quot; style=&quot;box-sizing: border-box ; margin-top: 0px ; margin-bottom: 0.5rem ; font-weight: normal ; font-stretch: normal ; line-height: normal ; color: rgb(51 , 51 , 51) ; font-size: 16px&quot;&gt;&lt;br&gt;&lt;/h1&gt;&lt;h1 class=&quot;a-product__information--title&quot; style=&quot;box-sizing: border-box ; margin-top: 0px ; margin-bottom: 0.5rem ; font-weight: normal ; font-stretch: normal ; line-height: normal ; color: rgb(51 , 51 , 51) ; font-size: 16px&quot;&gt;Material:&lt;span style=&quot;font-family: &amp;#34;robotoregular&amp;#34;&quot;&gt;&amp;nbsp;&lt;/span&gt;metal color níquel&lt;/h1&gt;&lt;div style=&quot;font-size: 16px&quot;&gt;precio:&amp;nbsp;&lt;/div&gt;&lt;font style=&quot;font-size: 16px&quot;&gt;&lt;span style=&quot;color: rgb(255 , 0 , 0) ; font-family: &amp;#34;robotoregular&amp;#34;&quot;&gt;$&lt;/span&gt;&lt;span style=&quot;color: rgb(255 , 0 , 0) ; font-family: &amp;#34;robotoregular&amp;#34;&quot;&gt;4,649&lt;/span&gt;&lt;/font&gt;" style="html=1;shadow=0;dashed=0;shape=mxgraph.bootstrap.rightButton;rSize=5;strokeColor=#DFDFDF;html=1;whiteSpace=wrap;fillColor=#ffffff;fontColor=#000000;verticalAlign=top;align=left;spacing=20;spacingBottom=0;fontSize=14;spacingTop=160;labelBackgroundColor=#FFFFFF;" parent="118" vertex="1">
                    <mxGeometry x="1" width="260" height="370" relative="1" as="geometry">
                        <mxPoint x="-260" as="offset"/>
                    </mxGeometry>
                </mxCell>
                <mxCell id="128" value="" style="html=1;shadow=0;dashed=0;shape=mxgraph.basic.corner_round_rect;dx=2;flipH=1;perimeter=none;whiteSpace=wrap;fillColor=#868E96;strokeColor=#DFDFDF;fontColor=#DEE2E6;resizeWidth=1;fontSize=18;labelBackgroundColor=#FFFFFF;" parent="127" vertex="1">
                    <mxGeometry width="260" height="160" relative="1" as="geometry"/>
                </mxCell>
                <mxCell id="129" value="" style="html=1;shadow=0;dashed=0;shape=mxgraph.basic.corner_round_rect;dx=2;flipV=1;flipH=1;perimeter=none;whiteSpace=wrap;fillColor=#F7F7F7;strokeColor=#DFDFDF;fontColor=#6C767D;resizeWidth=1;fontSize=13;align=left;spacing=20;labelBackgroundColor=#FFFFFF;" parent="127" vertex="1">
                    <mxGeometry y="1" width="260" height="29" relative="1" as="geometry">
                        <mxPoint y="-50" as="offset"/>
                    </mxGeometry>
                </mxCell>
                <mxCell id="144" value="&lt;span style=&quot;&quot;&gt;&lt;font face=&quot;Tahoma&quot;&gt;mas informacion&lt;/font&gt;&lt;/span&gt;" style="rounded=1;fillColor=#94011A;strokeColor=none;html=1;fontColor=#ffffff;align=center;verticalAlign=middle;fontStyle=0;fontSize=12;sketch=0;labelBackgroundColor=#94011A;fontFamily=Helvetica;gradientColor=none;" parent="127" vertex="1">
                    <mxGeometry x="46" y="329.99692307692305" width="163.5" height="31.307692307692307" as="geometry"/>
                </mxCell>
                <mxCell id="228" value="First slide" style="html=1;shadow=0;dashed=0;strokeColor=none;strokeWidth=1;fillColor=#777777;fontColor=#555555;whiteSpace=wrap;align=center;verticalAlign=middle;fontStyle=0;fontSize=40;labelBackgroundColor=#333333;labelBorderColor=#94011A;fontFamily=Tahoma;" parent="2" vertex="1">
                    <mxGeometry x="10" y="210" width="800" height="210" as="geometry"/>
                </mxCell>
                <mxCell id="229" value="" style="html=1;verticalLabelPosition=bottom;labelBackgroundColor=#ffffff;verticalAlign=top;shadow=0;dashed=0;strokeWidth=4;shape=mxgraph.ios7.misc.more;strokeColor=#a0a0a0;labelBorderColor=#94011A;fontFamily=Tahoma;fontSize=16;fontColor=#EEF3F7;fillColor=#94011A;gradientColor=#94011A;gradientDirection=radial;" parent="228" vertex="1">
                    <mxGeometry x="1" y="0.5" width="7" height="14" relative="1" as="geometry">
                        <mxPoint x="-50" y="-7" as="offset"/>
                    </mxGeometry>
                </mxCell>
                <mxCell id="230" value="" style="flipH=1;html=1;verticalLabelPosition=bottom;labelBackgroundColor=#ffffff;verticalAlign=top;shadow=0;dashed=0;strokeWidth=4;shape=mxgraph.ios7.misc.more;strokeColor=#a0a0a0;labelBorderColor=#94011A;fontFamily=Tahoma;fontSize=16;fontColor=#EEF3F7;fillColor=#94011A;gradientColor=#94011A;gradientDirection=radial;" parent="228" vertex="1">
                    <mxGeometry y="0.5" width="7" height="14" relative="1" as="geometry">
                        <mxPoint x="43" y="-7" as="offset"/>
                    </mxGeometry>
                </mxCell>
                <mxCell id="231" value="" style="html=1;shadow=0;strokeColor=none;fillColor=#ffffff;labelBackgroundColor=#333333;labelBorderColor=#94011A;fontFamily=Tahoma;fontSize=16;fontColor=#EEF3F7;" parent="228" vertex="1">
                    <mxGeometry x="0.5" y="1" width="30" height="4" relative="1" as="geometry">
                        <mxPoint x="-50" y="-20" as="offset"/>
                    </mxGeometry>
                </mxCell>
                <mxCell id="232" value="" style="html=1;shadow=0;strokeColor=none;fillColor=#BBBBBB;labelBackgroundColor=#333333;labelBorderColor=#94011A;fontFamily=Tahoma;fontSize=16;fontColor=#EEF3F7;" parent="228" vertex="1">
                    <mxGeometry x="0.5" y="1" width="30" height="4" relative="1" as="geometry">
                        <mxPoint x="-15" y="-20" as="offset"/>
                    </mxGeometry>
                </mxCell>
                <mxCell id="233" value="" style="html=1;shadow=0;strokeColor=none;fillColor=#BBBBBB;labelBackgroundColor=#333333;labelBorderColor=#94011A;fontFamily=Tahoma;fontSize=16;fontColor=#EEF3F7;" parent="228" vertex="1">
                    <mxGeometry x="0.5" y="1" width="30" height="4" relative="1" as="geometry">
                        <mxPoint x="20" y="-20" as="offset"/>
                    </mxGeometry>
                </mxCell>
                <mxCell id="234" value="&lt;span style=&quot;font-size: 16px&quot;&gt;&lt;b&gt;categorias&amp;nbsp;&lt;/b&gt;&lt;/span&gt;" style="html=1;shadow=0;strokeColor=none;fillColor=none;resizeWidth=1;fontColor=#FFFFFF;fontSize=14;labelBackgroundColor=#333333;labelBorderColor=#94011A;fontFamily=Tahoma;" parent="228" vertex="1">
                    <mxGeometry y="1" width="800" height="60" relative="1" as="geometry">
                        <mxPoint y="-90" as="offset"/>
                    </mxGeometry>
                </mxCell>
                <mxCell id="235" value="" style="strokeWidth=1;shadow=0;dashed=0;align=center;html=1;shape=mxgraph.mockup.containers.browserWindow;rSize=0;strokeColor=#333333;strokeColor2=#008cff;strokeColor3=#c4c4c4;mainText=,;recursiveResize=0;labelBackgroundColor=#333333;labelBorderColor=#CCCCFF;fontFamily=Tahoma;fontSize=16;fontColor=#EEF3F7;fillColor=#333333;gradientColor=#CCCCFF;gradientDirection=radial;" parent="1" vertex="1">
                    <mxGeometry x="870" y="840" width="760" height="390" as="geometry"/>
                </mxCell>
                <mxCell id="236" value="Page 1" style="strokeWidth=1;shadow=0;dashed=0;align=center;html=1;shape=mxgraph.mockup.containers.anchor;fontSize=17;fontColor=#666666;align=left;labelBackgroundColor=#333333;labelBorderColor=#94011A;fontFamily=Tahoma;fillColor=#94011A;gradientColor=#94011A;gradientDirection=radial;" parent="235" vertex="1">
                    <mxGeometry x="60" y="12" width="110" height="26" as="geometry"/>
                </mxCell>
                <mxCell id="237" value="https://www.draw.io" style="strokeWidth=1;shadow=0;dashed=0;align=center;html=1;shape=mxgraph.mockup.containers.anchor;rSize=0;fontSize=17;fontColor=#666666;align=left;labelBackgroundColor=#333333;labelBorderColor=#94011A;fontFamily=Tahoma;fillColor=#94011A;gradientColor=#94011A;gradientDirection=radial;" parent="235" vertex="1">
                    <mxGeometry x="130" y="60" width="250" height="26" as="geometry"/>
                </mxCell>
                <mxCell id="341" value="Bichos &lt;br&gt;company" style="html=1;shadow=0;dashed=0;fillColor=#a20025;strokeColor=#6F0000;fontSize=16;fontColor=#ffffff;align=left;spacing=15;" parent="235" vertex="1">
                    <mxGeometry y="110" width="760" height="70" as="geometry"/>
                </mxCell>
                <mxCell id="342" value="Inicio " style="fillColor=none;strokeColor=none;fontSize=14;fontColor=#ffffff;align=center;" parent="341" vertex="1">
                    <mxGeometry width="70" height="40" relative="1" as="geometry">
                        <mxPoint x="70" y="10" as="offset"/>
                    </mxGeometry>
                </mxCell>
                <mxCell id="343" value="Compras" style="fillColor=none;strokeColor=none;fontSize=14;fontColor=#F5FAFF;align=center;" parent="341" vertex="1">
                    <mxGeometry width="70" height="40" relative="1" as="geometry">
                        <mxPoint x="140" y="10" as="offset"/>
                    </mxGeometry>
                </mxCell>
                <mxCell id="344" value="Iniciar secion " style="fillColor=none;strokeColor=none;fontSize=14;fontColor=#F3F8FC;align=center;spacingRight=0;" parent="341" vertex="1">
                    <mxGeometry width="80" height="40" relative="1" as="geometry">
                        <mxPoint x="220" y="10" as="offset"/>
                    </mxGeometry>
                </mxCell>
                <mxCell id="345" value="About" style="fillColor=none;strokeColor=none;fontSize=14;fontColor=#EEF3F7;align=center;" parent="341" vertex="1">
                    <mxGeometry width="80" height="40" relative="1" as="geometry">
                        <mxPoint x="310" y="10" as="offset"/>
                    </mxGeometry>
                </mxCell>
                <mxCell id="346" value="&lt;font color=&quot;#ffffff&quot;&gt;Busqueda&lt;/font&gt;" style="html=1;shadow=0;dashed=0;shape=mxgraph.bootstrap.rrect;rSize=5;fontSize=14;fontColor=#1CA5B8;strokeColor=#FFFFFF;fillColor=none;" parent="341" vertex="1">
                    <mxGeometry x="1" width="70" height="40" relative="1" as="geometry">
                        <mxPoint x="-80" y="10" as="offset"/>
                    </mxGeometry>
                </mxCell>
                <mxCell id="347" value="Busqueda" style="html=1;shadow=0;dashed=0;shape=mxgraph.bootstrap.rrect;rSize=5;fontSize=14;fontColor=#6C767D;strokeColor=#CED4DA;fillColor=#ffffff;align=left;spacing=10;" parent="341" vertex="1">
                    <mxGeometry x="1" width="180" height="40" relative="1" as="geometry">
                        <mxPoint x="-270" y="10" as="offset"/>
                    </mxGeometry>
                </mxCell>
                <mxCell id="391" value="" style="html=1;shadow=0;dashed=0;shape=mxgraph.bootstrap.rrect;rSize=5;strokeColor=#000000;strokeWidth=1;fillColor=#B0011F;fontColor=#ffffff;whiteSpace=wrap;align=left;verticalAlign=middle;fontStyle=0;fontSize=14;spacingLeft=10;labelBackgroundColor=#94011A;fontFamily=Verdana;" vertex="1" parent="341">
                    <mxGeometry x="390" y="18.231976047904187" width="80" height="33.532934131736525" as="geometry"/>
                </mxCell>
                <mxCell id="392" value="" style="shape=triangle;direction=south;fillColor=#ffffff;strokeColor=none;perimeter=none;labelBackgroundColor=#94011A;fontFamily=Verdana;fontColor=#F3F8FC;" vertex="1" parent="391">
                    <mxGeometry x="1" y="0.5" width="10" height="5" relative="1" as="geometry">
                        <mxPoint x="-17" y="-2.5" as="offset"/>
                    </mxGeometry>
                </mxCell>
                <mxCell id="399" value="" style="html=1;verticalLabelPosition=bottom;align=center;labelBackgroundColor=#ffffff;verticalAlign=top;strokeWidth=2;strokeColor=#0080F0;shadow=0;dashed=0;shape=mxgraph.ios7.icons.shopping_cart;fillColor=#FFFFFF;" vertex="1" parent="391">
                    <mxGeometry x="16.515324675324564" y="6.077844311377245" width="29.61038961038961" height="21.377245508982035" as="geometry"/>
                </mxCell>
                <mxCell id="393" value="" style="html=1;shadow=0;dashed=0;shape=mxgraph.bootstrap.rrect;rSize=5;fillColor=#ffffff;strokeColor=#999999;labelBackgroundColor=#94011A;fontFamily=Verdana;fontColor=#F3F8FC;" vertex="1" parent="235">
                    <mxGeometry x="100" y="180" width="380" height="150" as="geometry"/>
                </mxCell>
                <mxCell id="394" value="articulo: Nombre" style="fillColor=none;strokeColor=none;align=left;spacing=20;fontSize=14;labelBackgroundColor=#94011A;fontFamily=Verdana;fontColor=#F3F8FC;" vertex="1" parent="393">
                    <mxGeometry width="170" height="30" relative="1" as="geometry">
                        <mxPoint y="10" as="offset"/>
                    </mxGeometry>
                </mxCell>
                <mxCell id="395" value="No. piezas: " style="fillColor=none;strokeColor=none;align=left;spacing=20;fontSize=14;labelBackgroundColor=#94011A;fontFamily=Verdana;fontColor=#F3F8FC;" vertex="1" parent="393">
                    <mxGeometry width="170" height="30" relative="1" as="geometry">
                        <mxPoint y="40" as="offset"/>
                    </mxGeometry>
                </mxCell>
                <mxCell id="396" value="Precio:" style="fillColor=none;strokeColor=none;align=left;spacing=20;fontSize=14;labelBackgroundColor=#94011A;fontFamily=Verdana;fontColor=#F3F8FC;" vertex="1" parent="393">
                    <mxGeometry width="170" height="30" relative="1" as="geometry">
                        <mxPoint y="70" as="offset"/>
                    </mxGeometry>
                </mxCell>
                <mxCell id="397" value="" style="shape=line;strokeColor=#999999;perimeter=none;resizeWidth=1;labelBackgroundColor=#94011A;fontFamily=Verdana;fontColor=#F3F8FC;fillColor=#94011A;" vertex="1" parent="393">
                    <mxGeometry width="380" height="10" relative="1" as="geometry">
                        <mxPoint y="100" as="offset"/>
                    </mxGeometry>
                </mxCell>
                <mxCell id="398" value="Total:" style="fillColor=none;strokeColor=none;align=left;spacing=20;fontSize=14;labelBackgroundColor=#94011A;fontFamily=Verdana;fontColor=#F3F8FC;" vertex="1" parent="393">
                    <mxGeometry width="170" height="30" relative="1" as="geometry">
                        <mxPoint y="110" as="offset"/>
                    </mxGeometry>
                </mxCell>
                <mxCell id="400" value="pagar" style="rounded=1;fillColor=#94011A;strokeColor=none;html=1;fontColor=#ffffff;align=center;verticalAlign=middle;fontStyle=0;fontSize=12;sketch=0;labelBackgroundColor=#7D0116;fontFamily=Verdana;" vertex="1" parent="393">
                    <mxGeometry x="250" y="110" width="86" height="33" as="geometry"/>
                </mxCell>
                <mxCell id="370" value="" style="strokeWidth=1;shadow=0;dashed=0;align=center;html=1;shape=mxgraph.mockup.containers.browserWindow;rSize=0;strokeColor=#333333;strokeColor2=#008cff;strokeColor3=#c4c4c4;mainText=,;recursiveResize=0;labelBackgroundColor=#333333;labelBorderColor=#CCCCFF;fontFamily=Tahoma;fontSize=16;fontColor=#EEF3F7;fillColor=#333333;gradientColor=#CCCCFF;gradientDirection=radial;" vertex="1" parent="1">
                    <mxGeometry x="870" y="10" width="760" height="710" as="geometry"/>
                </mxCell>
                <mxCell id="371" value="Page 1" style="strokeWidth=1;shadow=0;dashed=0;align=center;html=1;shape=mxgraph.mockup.containers.anchor;fontSize=17;fontColor=#666666;align=left;labelBackgroundColor=#333333;labelBorderColor=#94011A;fontFamily=Tahoma;fillColor=#94011A;gradientColor=#94011A;gradientDirection=radial;" vertex="1" parent="370">
                    <mxGeometry x="60" y="12" width="110" height="26" as="geometry"/>
                </mxCell>
                <mxCell id="372" value="https://www.draw.io" style="strokeWidth=1;shadow=0;dashed=0;align=center;html=1;shape=mxgraph.mockup.containers.anchor;rSize=0;fontSize=17;fontColor=#666666;align=left;labelBackgroundColor=#333333;labelBorderColor=#94011A;fontFamily=Tahoma;fillColor=#94011A;gradientColor=#94011A;gradientDirection=radial;" vertex="1" parent="370">
                    <mxGeometry x="130" y="60" width="250" height="26" as="geometry"/>
                </mxCell>
                <mxCell id="373" value="" style="verticalLabelPosition=bottom;shadow=0;dashed=0;align=center;html=1;verticalAlign=top;strokeWidth=1;shape=mxgraph.mockup.containers.userMale;strokeColor=#666666;strokeColor2=#008cff;labelBackgroundColor=#333333;labelBorderColor=#CCCCFF;fontFamily=Tahoma;fontSize=16;fontColor=#EEF3F7;fillColor=#333333;gradientColor=#CCCCFF;gradientDirection=radial;" vertex="1" parent="370">
                    <mxGeometry x="55" y="265" width="120" height="165" as="geometry"/>
                </mxCell>
                <mxCell id="374" value="Bichos &lt;br&gt;company" style="html=1;shadow=0;dashed=0;fillColor=#94011A;strokeColor=#3700CC;fontSize=16;fontColor=#ffffff;align=left;spacing=15;" vertex="1" parent="370">
                    <mxGeometry y="110" width="760" height="60" as="geometry"/>
                </mxCell>
                <mxCell id="375" value="Inicio " style="fillColor=none;strokeColor=none;fontSize=14;fontColor=#ffffff;align=center;" vertex="1" parent="374">
                    <mxGeometry width="70" height="40" relative="1" as="geometry">
                        <mxPoint x="70" y="10" as="offset"/>
                    </mxGeometry>
                </mxCell>
                <mxCell id="376" value="Compras" style="fillColor=none;strokeColor=none;fontSize=14;fontColor=#F5FAFF;align=center;" vertex="1" parent="374">
                    <mxGeometry width="70" height="40" relative="1" as="geometry">
                        <mxPoint x="140" y="10" as="offset"/>
                    </mxGeometry>
                </mxCell>
                <mxCell id="377" value="Iniciar secion " style="fillColor=none;strokeColor=none;fontSize=14;fontColor=#F3F8FC;align=center;spacingRight=0;" vertex="1" parent="374">
                    <mxGeometry width="80" height="40" relative="1" as="geometry">
                        <mxPoint x="220" y="10" as="offset"/>
                    </mxGeometry>
                </mxCell>
                <mxCell id="378" value="About" style="fillColor=none;strokeColor=none;fontSize=14;fontColor=#EEF3F7;align=center;" vertex="1" parent="374">
                    <mxGeometry width="80" height="40" relative="1" as="geometry">
                        <mxPoint x="310" y="10" as="offset"/>
                    </mxGeometry>
                </mxCell>
                <mxCell id="379" value="&lt;font color=&quot;#ffffff&quot;&gt;Busqueda&lt;/font&gt;" style="html=1;shadow=0;dashed=0;shape=mxgraph.bootstrap.rrect;rSize=5;fontSize=14;fontColor=#1CA5B8;strokeColor=#FFFFFF;fillColor=none;" vertex="1" parent="374">
                    <mxGeometry x="1" width="70" height="40" relative="1" as="geometry">
                        <mxPoint x="-80" y="10" as="offset"/>
                    </mxGeometry>
                </mxCell>
                <mxCell id="380" value="Busqueda" style="html=1;shadow=0;dashed=0;shape=mxgraph.bootstrap.rrect;rSize=5;fontSize=14;fontColor=#6C767D;strokeColor=#CED4DA;fillColor=#ffffff;align=left;spacing=10;" vertex="1" parent="374">
                    <mxGeometry x="1" width="180" height="40" relative="1" as="geometry">
                        <mxPoint x="-270" y="10" as="offset"/>
                    </mxGeometry>
                </mxCell>
                <mxCell id="381" value="" style="html=1;verticalLabelPosition=bottom;align=center;labelBackgroundColor=#ffffff;verticalAlign=top;strokeWidth=2;strokeColor=#0080F0;shadow=0;dashed=0;shape=mxgraph.ios7.icons.shopping_cart;fillColor=#FFFFFF;" vertex="1" parent="374">
                    <mxGeometry x="404.6753246753247" y="18" width="29.61038961038961" height="25.5" as="geometry"/>
                </mxCell>
                <mxCell id="382" value="Descripccion" style="html=1;fillColor=none;strokeColor=none;fontSize=11;align=left;fontColor=#3384FF;fontStyle=1;whiteSpace=wrap" vertex="1" parent="370">
                    <mxGeometry x="53" y="454" width="50" height="20" as="geometry"/>
                </mxCell>
                <mxCell id="383" value="caracteristicas&amp;nbsp;" style="html=1;fillColor=none;strokeColor=none;fontSize=11;align=left;fontColor=#FFFFFF;fontStyle=1;whiteSpace=wrap" vertex="1" parent="370">
                    <mxGeometry x="130" y="454" width="40" height="20" as="geometry"/>
                </mxCell>
                <mxCell id="384" value="Comentarios&amp;nbsp;" style="html=1;fillColor=none;strokeColor=none;fontSize=11;align=left;fontColor=#F3F8FC;fontStyle=1;whiteSpace=wrap" vertex="1" parent="370">
                    <mxGeometry x="225" y="454" width="60" height="20" as="geometry"/>
                </mxCell>
                <mxCell id="385" value="" style="shape=line;strokeWidth=2;html=1;strokeColor=#DFE1E5;resizeWidth=1" vertex="1" parent="370">
                    <mxGeometry x="53" y="474" width="437" height="10" as="geometry"/>
                </mxCell>
                <mxCell id="386" value="" style="shape=line;strokeWidth=2;html=1;strokeColor=#3384FF;resizeWidth=1" vertex="1" parent="370">
                    <mxGeometry x="53" y="474" width="40" height="10" as="geometry"/>
                </mxCell>
                <mxCell id="387" value="&lt;h1&gt;&lt;p class=&quot;description_productDescription__1ujOK text_text__3qcEt&quot; itemprop=&quot;description&quot; style=&quot;padding: 0px ; margin: 0px 0px 10px ; min-height: 0px ; min-width: 0px ; font-size: 15px ; line-height: 1.4 ; font-weight: 400 ; box-sizing: border-box&quot;&gt;&lt;span style=&quot;font-family: &amp;#34;bogle&amp;#34; , &amp;#34;bogleweb&amp;#34; , &amp;#34;helvetica neue&amp;#34; , &amp;#34;helvetica&amp;#34; , &amp;#34;arial&amp;#34; ; background-color: rgb(51 , 51 , 51)&quot;&gt;&lt;font color=&quot;#ffffff&quot;&gt;Nuestra tienda en línea te ofrece con entrega a domicilio accesorios para computadoras, diversos modelos de mouse, bocinas portátiles, impresoras multifuncionales, cartuchos de tinta, tabletas, las mejores marcas de laptops y muchas otras cosas más.&lt;/font&gt;&lt;/span&gt;&lt;br&gt;&lt;/p&gt;&lt;/h1&gt;" style="text;html=1;strokeColor=none;fillColor=none;spacing=5;spacingTop=-20;whiteSpace=wrap;overflow=hidden;rounded=0;" vertex="1" parent="370">
                    <mxGeometry x="40" y="500" width="480" height="110" as="geometry"/>
                </mxCell>
                <mxCell id="388" value="&lt;h1&gt;Smartphone Motorola Moto One Fusion Plus 128 GB Azul Desbloqueado&amp;nbsp;&lt;/h1&gt;&lt;span style=&quot;color: rgb(146 , 146 , 146) ; font-family: &amp;#34;bogle&amp;#34; , &amp;#34;bogleweb&amp;#34; , &amp;#34;helvetica neue&amp;#34; , &amp;#34;helvetica&amp;#34; , &amp;#34;arial&amp;#34; ; font-size: 15px&quot;&gt;codigo:&lt;/span&gt;&lt;span style=&quot;color: rgb(146 , 146 , 146) ; font-family: &amp;#34;bogle&amp;#34; , &amp;#34;bogleweb&amp;#34; , &amp;#34;helvetica neue&amp;#34; , &amp;#34;helvetica&amp;#34; , &amp;#34;arial&amp;#34; ; font-size: 15px&quot;&gt;00084002320310&lt;br&gt;&lt;br&gt;precio: $4999.0&lt;br&gt;&lt;/span&gt;&lt;p&gt;&lt;br&gt;&lt;/p&gt;" style="text;html=1;strokeColor=none;fillColor=none;spacing=5;spacingTop=-20;whiteSpace=wrap;overflow=hidden;rounded=0;labelBackgroundColor=#333333;fontFamily=Verdana;fontColor=#FFFFFF;" vertex="1" parent="370">
                    <mxGeometry x="243" y="230" width="437" height="220" as="geometry"/>
                </mxCell>
                <mxCell id="389" value="&lt;span style=&quot;background-color: rgb(148 , 1 , 26)&quot;&gt;agregar&lt;/span&gt;" style="html=1;shadow=0;dashed=0;shape=mxgraph.bootstrap.rrect;rSize=5;strokeColor=none;strokeWidth=1;fillColor=#94011A;fontColor=#FFFFFF;whiteSpace=wrap;align=center;verticalAlign=middle;spacingLeft=0;fontStyle=0;fontSize=16;spacing=5;labelBackgroundColor=#333333;fontFamily=Verdana;" vertex="1" parent="370">
                    <mxGeometry x="560" y="390" width="80" height="40" as="geometry"/>
                </mxCell>
                <mxCell id="401" value="" style="strokeWidth=1;shadow=0;dashed=0;align=center;html=1;shape=mxgraph.mockup.containers.browserWindow;rSize=0;strokeColor=#333333;strokeColor2=#008cff;strokeColor3=#c4c4c4;mainText=,;recursiveResize=0;labelBackgroundColor=#333333;labelBorderColor=#CCCCFF;fontFamily=Tahoma;fontSize=16;fontColor=#EEF3F7;fillColor=#333333;gradientColor=#3333FF;gradientDirection=radial;" vertex="1" parent="1">
                    <mxGeometry x="880" y="1260" width="760" height="680" as="geometry"/>
                </mxCell>
                <mxCell id="402" value="Page 1" style="strokeWidth=1;shadow=0;dashed=0;align=center;html=1;shape=mxgraph.mockup.containers.anchor;fontSize=17;fontColor=#666666;align=left;labelBackgroundColor=#333333;labelBorderColor=#94011A;fontFamily=Tahoma;fillColor=#94011A;gradientColor=#94011A;gradientDirection=radial;" vertex="1" parent="401">
                    <mxGeometry x="60" y="12" width="110" height="26" as="geometry"/>
                </mxCell>
                <mxCell id="403" value="https://www.draw.io" style="strokeWidth=1;shadow=0;dashed=0;align=center;html=1;shape=mxgraph.mockup.containers.anchor;rSize=0;fontSize=17;fontColor=#666666;align=left;labelBackgroundColor=#333333;labelBorderColor=#94011A;fontFamily=Tahoma;fillColor=#94011A;gradientColor=#94011A;gradientDirection=radial;" vertex="1" parent="401">
                    <mxGeometry x="130" y="60" width="250" height="26" as="geometry"/>
                </mxCell>
                <mxCell id="404" value="Bichos &lt;br&gt;company" style="html=1;shadow=0;dashed=0;fillColor=#a20025;strokeColor=#6F0000;fontSize=16;fontColor=#ffffff;align=left;spacing=15;" vertex="1" parent="401">
                    <mxGeometry y="110" width="760" height="70" as="geometry"/>
                </mxCell>
                <mxCell id="405" value="Inicio " style="fillColor=none;strokeColor=none;fontSize=14;fontColor=#ffffff;align=center;" vertex="1" parent="404">
                    <mxGeometry width="70" height="40" relative="1" as="geometry">
                        <mxPoint x="70" y="10" as="offset"/>
                    </mxGeometry>
                </mxCell>
                <mxCell id="406" value="Compras" style="fillColor=none;strokeColor=none;fontSize=14;fontColor=#F5FAFF;align=center;" vertex="1" parent="404">
                    <mxGeometry width="70" height="40" relative="1" as="geometry">
                        <mxPoint x="140" y="10" as="offset"/>
                    </mxGeometry>
                </mxCell>
                <mxCell id="407" value="Iniciar secion " style="fillColor=none;strokeColor=none;fontSize=14;fontColor=#F3F8FC;align=center;spacingRight=0;" vertex="1" parent="404">
                    <mxGeometry width="80" height="40" relative="1" as="geometry">
                        <mxPoint x="220" y="10" as="offset"/>
                    </mxGeometry>
                </mxCell>
                <mxCell id="408" value="About" style="fillColor=none;strokeColor=none;fontSize=14;fontColor=#EEF3F7;align=center;" vertex="1" parent="404">
                    <mxGeometry width="80" height="40" relative="1" as="geometry">
                        <mxPoint x="310" y="10" as="offset"/>
                    </mxGeometry>
                </mxCell>
                <mxCell id="409" value="&lt;font color=&quot;#ffffff&quot;&gt;Busqueda&lt;/font&gt;" style="html=1;shadow=0;dashed=0;shape=mxgraph.bootstrap.rrect;rSize=5;fontSize=14;fontColor=#1CA5B8;strokeColor=#FFFFFF;fillColor=none;" vertex="1" parent="404">
                    <mxGeometry x="1" width="70" height="40" relative="1" as="geometry">
                        <mxPoint x="-80" y="10" as="offset"/>
                    </mxGeometry>
                </mxCell>
                <mxCell id="410" value="Busqueda" style="html=1;shadow=0;dashed=0;shape=mxgraph.bootstrap.rrect;rSize=5;fontSize=14;fontColor=#6C767D;strokeColor=#CED4DA;fillColor=#ffffff;align=left;spacing=10;" vertex="1" parent="404">
                    <mxGeometry x="1" width="180" height="40" relative="1" as="geometry">
                        <mxPoint x="-270" y="10" as="offset"/>
                    </mxGeometry>
                </mxCell>
                <mxCell id="411" value="" style="html=1;shadow=0;dashed=0;shape=mxgraph.bootstrap.rrect;rSize=5;strokeColor=#000000;strokeWidth=1;fillColor=#B0011F;fontColor=#ffffff;whiteSpace=wrap;align=left;verticalAlign=middle;fontStyle=0;fontSize=14;spacingLeft=10;labelBackgroundColor=#94011A;fontFamily=Verdana;" vertex="1" parent="404">
                    <mxGeometry x="390" y="18.231976047904187" width="80" height="33.532934131736525" as="geometry"/>
                </mxCell>
                <mxCell id="412" value="" style="shape=triangle;direction=south;fillColor=#ffffff;strokeColor=none;perimeter=none;labelBackgroundColor=#94011A;fontFamily=Verdana;fontColor=#F3F8FC;" vertex="1" parent="411">
                    <mxGeometry x="1" y="0.5" width="10" height="5" relative="1" as="geometry">
                        <mxPoint x="-17" y="-2.5" as="offset"/>
                    </mxGeometry>
                </mxCell>
                <mxCell id="413" value="" style="html=1;verticalLabelPosition=bottom;align=center;labelBackgroundColor=#ffffff;verticalAlign=top;strokeWidth=2;strokeColor=#0080F0;shadow=0;dashed=0;shape=mxgraph.ios7.icons.shopping_cart;fillColor=#FFFFFF;" vertex="1" parent="411">
                    <mxGeometry x="16.515324675324564" y="6.077844311377245" width="29.61038961038961" height="21.377245508982035" as="geometry"/>
                </mxCell>
                <mxCell id="432" value="Carito de Compras" style="shape=table;childLayout=tableLayout;rowLines=0;columnLines=0;startSize=40;collapsible=0;recursiveResize=0;expand=0;pointerEvents=0;fontStyle=1;align=center;labelBackgroundColor=#7D0116;fontFamily=Verdana;fontColor=#F3F8FC;strokeColor=#000000;fillColor=#7D0116;gradientColor=#7D0116;" vertex="1" parent="401">
                    <mxGeometry x="60" y="210" width="650" height="313" as="geometry"/>
                </mxCell>
                <mxCell id="433" value="producto 1" style="swimlane;horizontal=0;points=[[0,0.5],[1,0.5]];portConstraint=eastwest;startSize=40;collapsible=0;recursiveResize=0;expand=0;pointerEvents=0;fontStyle=1;labelBackgroundColor=#7D0116;fontFamily=Verdana;fontColor=#F3F8FC;strokeColor=#000000;fillColor=#7D0116;gradientColor=#7D0116;" vertex="1" parent="432">
                    <mxGeometry y="40" width="650" height="137" as="geometry"/>
                </mxCell>
                <mxCell id="434" value="Producto" style="swimlane;connectable=0;startSize=40;collapsible=0;recursiveResize=0;expand=0;pointerEvents=0;labelBackgroundColor=#7D0116;fontFamily=Verdana;fontColor=#F3F8FC;strokeColor=#000000;fillColor=#7D0116;gradientColor=#7D0116;" vertex="1" parent="433">
                    <mxGeometry x="40" width="204" height="137" as="geometry">
                        <mxRectangle width="204" height="137" as="alternateBounds"/>
                    </mxGeometry>
                </mxCell>
                <mxCell id="449" value="&lt;a href=&quot;https://www.cyberpuerta.mx/Computo-Hardware/Componentes/Tarjetas-de-Video/Tarjeta-de-Video-Gigabyte-AMD-Radeon-RX-6600-Eagle-8G-8GB-128-bit-GDDR6-PCI-Express-x8-4-0.html&quot; style=&quot;box-sizing: inherit ; font-size: 14px ; height: 55px ; margin-bottom: 10px ; display: inline ; font-family: &amp;#34;arial&amp;#34; , &amp;#34;helvetica&amp;#34; , sans-serif&quot;&gt;&lt;font color=&quot;#eef3f7&quot;&gt;Tarjeta de Video Gigabyte AMD Radeon RX 6600 Eagle 8G, 8GB 128-bit GDDR6, PCI Express x8 4.0&lt;/font&gt;&lt;/a&gt;" style="text;html=1;strokeColor=none;fillColor=none;align=center;verticalAlign=middle;whiteSpace=wrap;rounded=0;labelBackgroundColor=#1A1A1A;fontFamily=Verdana;fontColor=#EEF3F7;" vertex="1" parent="434">
                    <mxGeometry x="20" y="41.25" width="170" height="97.5" as="geometry"/>
                </mxCell>
                <mxCell id="435" value="Cantidad " style="swimlane;connectable=0;startSize=40;collapsible=0;recursiveResize=0;expand=0;pointerEvents=0;labelBackgroundColor=#7D0116;fontFamily=Verdana;fontColor=#F3F8FC;strokeColor=#000000;fillColor=#7D0116;gradientColor=#7D0116;" vertex="1" parent="433">
                    <mxGeometry x="244" width="202" height="137" as="geometry">
                        <mxRectangle width="202" height="137" as="alternateBounds"/>
                    </mxGeometry>
                </mxCell>
                <mxCell id="454" value="1" style="html=1;shadow=0;dashed=0;shape=mxgraph.bootstrap.rrect;rSize=5;fontSize=14;fontColor=#6C767D;strokeColor=#CED4DA;fillColor=#ffffff;align=left;spacing=10;" vertex="1" parent="435">
                    <mxGeometry x="50" y="67.5" width="34" height="40" as="geometry"/>
                </mxCell>
                <mxCell id="453" value="" style="verticalLabelPosition=bottom;verticalAlign=top;html=1;shadow=0;dashed=0;strokeWidth=1;shape=mxgraph.ios.iPrevNext;strokeColor=#444444;fillColor=#dddddd;fillColor2=#3D5565;fillColor3=#ffffff;align=center;sketch=0;labelBackgroundColor=#1A1A1A;fontFamily=Verdana;fontColor=#EEF3F7;" vertex="1" parent="435">
                    <mxGeometry x="96" y="75" width="54" height="25" as="geometry"/>
                </mxCell>
                <mxCell id="436" value="Precio " style="swimlane;connectable=0;startSize=40;collapsible=0;recursiveResize=0;expand=0;pointerEvents=0;labelBackgroundColor=#7D0116;fontFamily=Verdana;fontColor=#F3F8FC;strokeColor=#000000;fillColor=#7D0116;gradientColor=#7D0116;" vertex="1" parent="433">
                    <mxGeometry x="446" width="204" height="137" as="geometry">
                        <mxRectangle width="204" height="137" as="alternateBounds"/>
                    </mxGeometry>
                </mxCell>
                <mxCell id="455" value="$ 000000000" style="html=1;shadow=0;dashed=0;shape=mxgraph.bootstrap.rrect;rSize=5;fontSize=14;fontColor=#6C767D;strokeColor=#CED4DA;fillColor=#ffffff;align=left;spacing=10;" vertex="1" parent="436">
                    <mxGeometry x="29" y="67.5" width="146" height="40" as="geometry"/>
                </mxCell>
                <mxCell id="437" value="Actor 2" style="swimlane;horizontal=0;points=[[0,0.5],[1,0.5]];portConstraint=eastwest;startSize=40;collapsible=0;recursiveResize=0;expand=0;pointerEvents=0;labelBackgroundColor=#7D0116;fontFamily=Verdana;fontColor=#F3F8FC;strokeColor=#000000;fillColor=#7D0116;gradientColor=#7D0116;" vertex="1" parent="432">
                    <mxGeometry y="177" width="650" height="136" as="geometry"/>
                </mxCell>
                <mxCell id="438" value="" style="swimlane;connectable=0;startSize=0;collapsible=0;recursiveResize=0;expand=0;pointerEvents=0;labelBackgroundColor=#7D0116;fontFamily=Verdana;fontColor=#F3F8FC;strokeColor=#000000;fillColor=#7D0116;gradientColor=#7D0116;" vertex="1" parent="437">
                    <mxGeometry x="40" width="204" height="136" as="geometry">
                        <mxRectangle width="204" height="136" as="alternateBounds"/>
                    </mxGeometry>
                </mxCell>
                <mxCell id="439" value="" style="swimlane;connectable=0;startSize=0;collapsible=0;recursiveResize=0;expand=0;pointerEvents=0;labelBackgroundColor=#7D0116;fontFamily=Verdana;fontColor=#F3F8FC;strokeColor=#000000;fillColor=#7D0116;gradientColor=#7D0116;" vertex="1" parent="437">
                    <mxGeometry x="244" width="202" height="136" as="geometry">
                        <mxRectangle width="202" height="136" as="alternateBounds"/>
                    </mxGeometry>
                </mxCell>
                <mxCell id="456" value="producto 2" style="swimlane;horizontal=0;points=[[0,0.5],[1,0.5]];portConstraint=eastwest;startSize=40;collapsible=0;recursiveResize=0;expand=0;pointerEvents=0;fontStyle=1;labelBackgroundColor=#7D0116;fontFamily=Verdana;fontColor=#F3F8FC;strokeColor=#000000;fillColor=#7D0116;gradientColor=#7D0116;" vertex="1" parent="439">
                    <mxGeometry x="-244" y="-1" width="650" height="137" as="geometry"/>
                </mxCell>
                <mxCell id="457" value="Producto" style="swimlane;connectable=0;startSize=40;collapsible=0;recursiveResize=0;expand=0;pointerEvents=0;labelBackgroundColor=#7D0116;fontFamily=Verdana;fontColor=#F3F8FC;strokeColor=#000000;fillColor=#7D0116;gradientColor=#7D0116;" vertex="1" parent="456">
                    <mxGeometry x="40" width="204" height="137" as="geometry">
                        <mxRectangle width="204" height="137" as="alternateBounds"/>
                    </mxGeometry>
                </mxCell>
                <mxCell id="458" value="&lt;a href=&quot;https://www.cyberpuerta.mx/Computo-Hardware/Componentes/Tarjetas-de-Video/Tarjeta-de-Video-Gigabyte-AMD-Radeon-RX-6600-Eagle-8G-8GB-128-bit-GDDR6-PCI-Express-x8-4-0.html&quot; style=&quot;box-sizing: inherit ; font-size: 14px ; height: 55px ; margin-bottom: 10px ; display: inline ; font-family: &amp;quot;arial&amp;quot; , &amp;quot;helvetica&amp;quot; , sans-serif&quot;&gt;&lt;font color=&quot;#eef3f7&quot;&gt;Tarjeta de Video Gigabyte AMD Radeon RX 6600 Eagle 8G, 8GB 128-bit GDDR6, PCI Express x8 4.0&lt;/font&gt;&lt;/a&gt;" style="text;html=1;strokeColor=none;fillColor=none;align=center;verticalAlign=middle;whiteSpace=wrap;rounded=0;labelBackgroundColor=#1A1A1A;fontFamily=Verdana;fontColor=#EEF3F7;" vertex="1" parent="457">
                    <mxGeometry x="20" y="41.25" width="170" height="97.5" as="geometry"/>
                </mxCell>
                <mxCell id="459" value="Cantidad " style="swimlane;connectable=0;startSize=40;collapsible=0;recursiveResize=0;expand=0;pointerEvents=0;labelBackgroundColor=#7D0116;fontFamily=Verdana;fontColor=#F3F8FC;strokeColor=#000000;fillColor=#7D0116;gradientColor=#7D0116;" vertex="1" parent="456">
                    <mxGeometry x="244" width="202" height="137" as="geometry">
                        <mxRectangle width="202" height="137" as="alternateBounds"/>
                    </mxGeometry>
                </mxCell>
                <mxCell id="460" value="1" style="html=1;shadow=0;dashed=0;shape=mxgraph.bootstrap.rrect;rSize=5;fontSize=14;fontColor=#6C767D;strokeColor=#CED4DA;fillColor=#ffffff;align=left;spacing=10;" vertex="1" parent="459">
                    <mxGeometry x="50" y="67.5" width="34" height="40" as="geometry"/>
                </mxCell>
                <mxCell id="461" value="" style="verticalLabelPosition=bottom;verticalAlign=top;html=1;shadow=0;dashed=0;strokeWidth=1;shape=mxgraph.ios.iPrevNext;strokeColor=#444444;fillColor=#dddddd;fillColor2=#3D5565;fillColor3=#ffffff;align=center;sketch=0;labelBackgroundColor=#1A1A1A;fontFamily=Verdana;fontColor=#EEF3F7;" vertex="1" parent="459">
                    <mxGeometry x="96" y="75" width="54" height="25" as="geometry"/>
                </mxCell>
                <mxCell id="462" value="Precio " style="swimlane;connectable=0;startSize=40;collapsible=0;recursiveResize=0;expand=0;pointerEvents=0;labelBackgroundColor=#7D0116;fontFamily=Verdana;fontColor=#F3F8FC;strokeColor=#000000;fillColor=#7D0116;gradientColor=#7D0116;" vertex="1" parent="456">
                    <mxGeometry x="446" width="204" height="137" as="geometry">
                        <mxRectangle width="204" height="137" as="alternateBounds"/>
                    </mxGeometry>
                </mxCell>
                <mxCell id="463" value="$ 000000000" style="html=1;shadow=0;dashed=0;shape=mxgraph.bootstrap.rrect;rSize=5;fontSize=14;fontColor=#6C767D;strokeColor=#CED4DA;fillColor=#ffffff;align=left;spacing=10;" vertex="1" parent="462">
                    <mxGeometry x="29" y="67.5" width="146" height="40" as="geometry"/>
                </mxCell>
                <mxCell id="440" value="" style="swimlane;connectable=0;startSize=0;collapsible=0;recursiveResize=0;expand=0;pointerEvents=0;labelBackgroundColor=#7D0116;fontFamily=Verdana;fontColor=#F3F8FC;strokeColor=#000000;fillColor=#7D0116;gradientColor=#7D0116;" vertex="1" parent="437">
                    <mxGeometry x="446" width="204" height="136" as="geometry">
                        <mxRectangle width="204" height="136" as="alternateBounds"/>
                    </mxGeometry>
                </mxCell>
                <mxCell id="464" value="&lt;span style=&quot;background-color: rgb(148 , 1 , 26)&quot;&gt;continuar con el proceso&lt;/span&gt;" style="html=1;shadow=0;dashed=0;shape=mxgraph.bootstrap.rrect;rSize=5;strokeColor=none;strokeWidth=1;fillColor=#94011A;fontColor=#FFFFFF;whiteSpace=wrap;align=center;verticalAlign=middle;spacingLeft=0;fontStyle=0;fontSize=16;spacing=5;labelBackgroundColor=#333333;fontFamily=Verdana;" vertex="1" parent="401">
                    <mxGeometry x="450" y="570" width="250" height="40" as="geometry"/>
                </mxCell>
                <mxCell id="465" value="total " style="swimlane;fontStyle=0;childLayout=stackLayout;horizontal=1;startSize=30;horizontalStack=0;resizeParent=1;resizeParentMax=0;resizeLast=0;collapsible=1;marginBottom=0;labelBackgroundColor=#B0011F;fontFamily=Times New Roman;fontColor=#ffffff;strokeColor=#6F0000;fillColor=#a20025;gradientDirection=north;fontSize=22;" vertex="1" parent="401">
                    <mxGeometry x="90" y="540" width="250" height="120" as="geometry"/>
                </mxCell>
                <mxCell id="466" value="Total Productos: $" style="text;strokeColor=none;fillColor=none;align=left;verticalAlign=middle;spacingLeft=4;spacingRight=4;overflow=hidden;points=[[0,0.5],[1,0.5]];portConstraint=eastwest;rotatable=0;labelBackgroundColor=#1A1A1A;fontFamily=Verdana;fontColor=#EEF3F7;" vertex="1" parent="465">
                    <mxGeometry y="30" width="250" height="30" as="geometry"/>
                </mxCell>
                <mxCell id="467" value="Total Envio: $ " style="text;strokeColor=none;fillColor=none;align=left;verticalAlign=middle;spacingLeft=4;spacingRight=4;overflow=hidden;points=[[0,0.5],[1,0.5]];portConstraint=eastwest;rotatable=0;labelBackgroundColor=#1A1A1A;fontFamily=Verdana;fontColor=#EEF3F7;" vertex="1" parent="465">
                    <mxGeometry y="60" width="250" height="30" as="geometry"/>
                </mxCell>
                <mxCell id="468" value="Total a Pagar:                    " style="text;strokeColor=none;fillColor=none;align=right;verticalAlign=middle;spacingLeft=4;spacingRight=4;overflow=hidden;points=[[0,0.5],[1,0.5]];portConstraint=eastwest;rotatable=0;labelBackgroundColor=#1A1A1A;fontFamily=Verdana;fontColor=#EEF3F7;" vertex="1" parent="465">
                    <mxGeometry y="90" width="250" height="30" as="geometry"/>
                </mxCell>
                <mxCell id="469" value="" style="strokeWidth=1;shadow=0;dashed=0;align=center;html=1;shape=mxgraph.mockup.containers.browserWindow;rSize=0;strokeColor=#333333;strokeColor2=#008cff;strokeColor3=#c4c4c4;mainText=,;recursiveResize=0;labelBackgroundColor=#333333;labelBorderColor=#CCCCFF;fontFamily=Tahoma;fontSize=16;fontColor=#EEF3F7;fillColor=#333333;gradientColor=#3333FF;gradientDirection=radial;" vertex="1" parent="1">
                    <mxGeometry x="1700" y="1520" width="760" height="503" as="geometry"/>
                </mxCell>
                <mxCell id="470" value="Page 1" style="strokeWidth=1;shadow=0;dashed=0;align=center;html=1;shape=mxgraph.mockup.containers.anchor;fontSize=17;fontColor=#666666;align=left;labelBackgroundColor=#333333;labelBorderColor=#94011A;fontFamily=Tahoma;fillColor=#94011A;gradientColor=#94011A;gradientDirection=radial;" vertex="1" parent="469">
                    <mxGeometry x="60" y="12" width="110" height="26" as="geometry"/>
                </mxCell>
                <mxCell id="471" value="https://www.draw.io" style="strokeWidth=1;shadow=0;dashed=0;align=center;html=1;shape=mxgraph.mockup.containers.anchor;rSize=0;fontSize=17;fontColor=#666666;align=left;labelBackgroundColor=#333333;labelBorderColor=#94011A;fontFamily=Tahoma;fillColor=#94011A;gradientColor=#94011A;gradientDirection=radial;" vertex="1" parent="469">
                    <mxGeometry x="130" y="60" width="250" height="26" as="geometry"/>
                </mxCell>
                <mxCell id="472" value="Bichos &lt;br&gt;company" style="html=1;shadow=0;dashed=0;fillColor=#a20025;strokeColor=#6F0000;fontSize=16;fontColor=#ffffff;align=left;spacing=15;" vertex="1" parent="469">
                    <mxGeometry y="110" width="760" height="70" as="geometry"/>
                </mxCell>
                <mxCell id="473" value="Inicio " style="fillColor=none;strokeColor=none;fontSize=14;fontColor=#ffffff;align=center;" vertex="1" parent="472">
                    <mxGeometry width="70" height="40" relative="1" as="geometry">
                        <mxPoint x="70" y="10" as="offset"/>
                    </mxGeometry>
                </mxCell>
                <mxCell id="474" value="Compras" style="fillColor=none;strokeColor=none;fontSize=14;fontColor=#F5FAFF;align=center;" vertex="1" parent="472">
                    <mxGeometry width="70" height="40" relative="1" as="geometry">
                        <mxPoint x="140" y="10" as="offset"/>
                    </mxGeometry>
                </mxCell>
                <mxCell id="475" value="Iniciar secion " style="fillColor=none;strokeColor=none;fontSize=14;fontColor=#F3F8FC;align=center;spacingRight=0;" vertex="1" parent="472">
                    <mxGeometry width="80" height="40" relative="1" as="geometry">
                        <mxPoint x="220" y="10" as="offset"/>
                    </mxGeometry>
                </mxCell>
                <mxCell id="476" value="About" style="fillColor=none;strokeColor=none;fontSize=14;fontColor=#EEF3F7;align=center;" vertex="1" parent="472">
                    <mxGeometry width="80" height="40" relative="1" as="geometry">
                        <mxPoint x="310" y="10" as="offset"/>
                    </mxGeometry>
                </mxCell>
                <mxCell id="477" value="&lt;font color=&quot;#ffffff&quot;&gt;Busqueda&lt;/font&gt;" style="html=1;shadow=0;dashed=0;shape=mxgraph.bootstrap.rrect;rSize=5;fontSize=14;fontColor=#1CA5B8;strokeColor=#FFFFFF;fillColor=none;" vertex="1" parent="472">
                    <mxGeometry x="1" width="70" height="40" relative="1" as="geometry">
                        <mxPoint x="-80" y="10" as="offset"/>
                    </mxGeometry>
                </mxCell>
                <mxCell id="478" value="Busqueda" style="html=1;shadow=0;dashed=0;shape=mxgraph.bootstrap.rrect;rSize=5;fontSize=14;fontColor=#6C767D;strokeColor=#CED4DA;fillColor=#ffffff;align=left;spacing=10;" vertex="1" parent="472">
                    <mxGeometry x="1" width="180" height="40" relative="1" as="geometry">
                        <mxPoint x="-270" y="10" as="offset"/>
                    </mxGeometry>
                </mxCell>
                <mxCell id="479" value="" style="html=1;shadow=0;dashed=0;shape=mxgraph.bootstrap.rrect;rSize=5;strokeColor=#000000;strokeWidth=1;fillColor=#B0011F;fontColor=#ffffff;whiteSpace=wrap;align=left;verticalAlign=middle;fontStyle=0;fontSize=14;spacingLeft=10;labelBackgroundColor=#94011A;fontFamily=Verdana;" vertex="1" parent="472">
                    <mxGeometry x="390" y="18.231976047904187" width="80" height="33.532934131736525" as="geometry"/>
                </mxCell>
                <mxCell id="480" value="" style="shape=triangle;direction=south;fillColor=#ffffff;strokeColor=none;perimeter=none;labelBackgroundColor=#94011A;fontFamily=Verdana;fontColor=#F3F8FC;" vertex="1" parent="479">
                    <mxGeometry x="1" y="0.5" width="10" height="5" relative="1" as="geometry">
                        <mxPoint x="-17" y="-2.5" as="offset"/>
                    </mxGeometry>
                </mxCell>
                <mxCell id="481" value="" style="html=1;verticalLabelPosition=bottom;align=center;labelBackgroundColor=#ffffff;verticalAlign=top;strokeWidth=2;strokeColor=#0080F0;shadow=0;dashed=0;shape=mxgraph.ios7.icons.shopping_cart;fillColor=#FFFFFF;" vertex="1" parent="479">
                    <mxGeometry x="16.515324675324564" y="6.077844311377245" width="29.61038961038961" height="21.377245508982035" as="geometry"/>
                </mxCell>
                <mxCell id="549" value="&lt;span&gt;Olvide mi contraseña D:&lt;/span&gt;" style="html=1;shadow=0;dashed=0;shape=mxgraph.bootstrap.rrect;rSize=5;strokeColor=none;strokeWidth=1;fillColor=#94011A;fontColor=#FFFFFF;whiteSpace=wrap;align=center;verticalAlign=middle;spacingLeft=0;fontStyle=0;fontSize=16;spacing=5;labelBackgroundColor=#94011A;fontFamily=Verdana;" vertex="1" parent="469">
                    <mxGeometry x="190" y="433" width="220" height="40" as="geometry"/>
                </mxCell>
                <mxCell id="540" value="E-mail:" style="fillColor=none;strokeColor=none;align=left;fontSize=14;labelBackgroundColor=#B0011F;fontFamily=Times New Roman;fontColor=#EEF3F7;" vertex="1" parent="1">
                    <mxGeometry width="260" height="40" relative="1" as="geometry">
                        <mxPoint x="1731" y="1699" as="offset"/>
                    </mxGeometry>
                </mxCell>
                <mxCell id="541" value="&lt;span style=&quot;background-color: rgb(243 , 248 , 252)&quot;&gt;&lt;font color=&quot;#333333&quot;&gt;ejemplo@gmail.com&lt;/font&gt;&lt;/span&gt;" style="html=1;shadow=0;dashed=0;shape=mxgraph.bootstrap.rrect;rSize=5;fillColor=#b0e3e6;strokeColor=#0e8088;align=left;spacing=15;fontSize=14;labelBackgroundColor=#B0011F;fontFamily=Times New Roman;" vertex="1" parent="1">
                    <mxGeometry width="700" height="30" relative="1" as="geometry">
                        <mxPoint x="1730" y="1739" as="offset"/>
                    </mxGeometry>
                </mxCell>
                <mxCell id="543" value="Contraseña" style="fillColor=none;strokeColor=none;align=left;fontSize=14;labelBackgroundColor=#B0011F;fontFamily=Times New Roman;fontColor=#EEF3F7;" vertex="1" parent="1">
                    <mxGeometry width="260" height="40" relative="1" as="geometry">
                        <mxPoint x="1730" y="1799" as="offset"/>
                    </mxGeometry>
                </mxCell>
                <mxCell id="547" value="&lt;font color=&quot;#333333&quot;&gt;&lt;span style=&quot;background-color: rgb(243 , 248 , 252)&quot;&gt;contraseña&amp;nbsp;&lt;/span&gt;&lt;/font&gt;" style="html=1;shadow=0;dashed=0;shape=mxgraph.bootstrap.rrect;rSize=5;fillColor=#b0e3e6;strokeColor=#0e8088;align=left;spacing=15;fontSize=14;labelBackgroundColor=#B0011F;fontFamily=Times New Roman;" vertex="1" parent="1">
                    <mxGeometry x="1730" y="1838.5" width="700" height="30" as="geometry"/>
                </mxCell>
                <mxCell id="548" value="&lt;span style=&quot;background-color: rgb(148 , 1 , 26)&quot;&gt;iniciar secion&lt;/span&gt;" style="html=1;shadow=0;dashed=0;shape=mxgraph.bootstrap.rrect;rSize=5;strokeColor=none;strokeWidth=1;fillColor=#94011A;fontColor=#FFFFFF;whiteSpace=wrap;align=center;verticalAlign=middle;spacingLeft=0;fontStyle=0;fontSize=16;spacing=5;labelBackgroundColor=#333333;fontFamily=Verdana;" vertex="1" parent="1">
                    <mxGeometry x="1730" y="1921.5" width="140" height="40" as="geometry"/>
                </mxCell>
                <mxCell id="550" value="" style="strokeWidth=1;shadow=0;dashed=0;align=center;html=1;shape=mxgraph.mockup.containers.browserWindow;rSize=0;strokeColor=#333333;strokeColor2=#008cff;strokeColor3=#c4c4c4;mainText=,;recursiveResize=0;labelBackgroundColor=#333333;labelBorderColor=#CCCCFF;fontFamily=Tahoma;fontSize=16;fontColor=#EEF3F7;fillColor=#333333;gradientColor=#3333FF;gradientDirection=radial;" vertex="1" parent="1">
                    <mxGeometry x="1688" y="770" width="760" height="740" as="geometry"/>
                </mxCell>
                <mxCell id="551" value="Page 1" style="strokeWidth=1;shadow=0;dashed=0;align=center;html=1;shape=mxgraph.mockup.containers.anchor;fontSize=17;fontColor=#666666;align=left;labelBackgroundColor=#333333;labelBorderColor=#94011A;fontFamily=Tahoma;fillColor=#94011A;gradientColor=#94011A;gradientDirection=radial;" vertex="1" parent="550">
                    <mxGeometry x="60" y="12" width="110" height="26" as="geometry"/>
                </mxCell>
                <mxCell id="552" value="https://www.draw.io" style="strokeWidth=1;shadow=0;dashed=0;align=center;html=1;shape=mxgraph.mockup.containers.anchor;rSize=0;fontSize=17;fontColor=#666666;align=left;labelBackgroundColor=#333333;labelBorderColor=#94011A;fontFamily=Tahoma;fillColor=#94011A;gradientColor=#94011A;gradientDirection=radial;" vertex="1" parent="550">
                    <mxGeometry x="130" y="60" width="250" height="26" as="geometry"/>
                </mxCell>
                <mxCell id="553" value="Bichos &lt;br&gt;company" style="html=1;shadow=0;dashed=0;fillColor=#a20025;strokeColor=#6F0000;fontSize=16;fontColor=#ffffff;align=left;spacing=15;" vertex="1" parent="550">
                    <mxGeometry y="110" width="760" height="70" as="geometry"/>
                </mxCell>
                <mxCell id="554" value="Inicio " style="fillColor=none;strokeColor=none;fontSize=14;fontColor=#ffffff;align=center;" vertex="1" parent="553">
                    <mxGeometry width="70" height="40" relative="1" as="geometry">
                        <mxPoint x="70" y="10" as="offset"/>
                    </mxGeometry>
                </mxCell>
                <mxCell id="555" value="Compras" style="fillColor=none;strokeColor=none;fontSize=14;fontColor=#F5FAFF;align=center;" vertex="1" parent="553">
                    <mxGeometry width="70" height="40" relative="1" as="geometry">
                        <mxPoint x="140" y="10" as="offset"/>
                    </mxGeometry>
                </mxCell>
                <mxCell id="556" value="Iniciar secion " style="fillColor=none;strokeColor=none;fontSize=14;fontColor=#F3F8FC;align=center;spacingRight=0;" vertex="1" parent="553">
                    <mxGeometry width="80" height="40" relative="1" as="geometry">
                        <mxPoint x="220" y="10" as="offset"/>
                    </mxGeometry>
                </mxCell>
                <mxCell id="557" value="About" style="fillColor=none;strokeColor=none;fontSize=14;fontColor=#EEF3F7;align=center;" vertex="1" parent="553">
                    <mxGeometry width="80" height="40" relative="1" as="geometry">
                        <mxPoint x="310" y="10" as="offset"/>
                    </mxGeometry>
                </mxCell>
                <mxCell id="558" value="&lt;font color=&quot;#ffffff&quot;&gt;Busqueda&lt;/font&gt;" style="html=1;shadow=0;dashed=0;shape=mxgraph.bootstrap.rrect;rSize=5;fontSize=14;fontColor=#1CA5B8;strokeColor=#FFFFFF;fillColor=none;" vertex="1" parent="553">
                    <mxGeometry x="1" width="70" height="40" relative="1" as="geometry">
                        <mxPoint x="-80" y="10" as="offset"/>
                    </mxGeometry>
                </mxCell>
                <mxCell id="559" value="Busqueda" style="html=1;shadow=0;dashed=0;shape=mxgraph.bootstrap.rrect;rSize=5;fontSize=14;fontColor=#6C767D;strokeColor=#CED4DA;fillColor=#ffffff;align=left;spacing=10;" vertex="1" parent="553">
                    <mxGeometry x="1" width="180" height="40" relative="1" as="geometry">
                        <mxPoint x="-270" y="10" as="offset"/>
                    </mxGeometry>
                </mxCell>
                <mxCell id="560" value="" style="html=1;shadow=0;dashed=0;shape=mxgraph.bootstrap.rrect;rSize=5;strokeColor=#000000;strokeWidth=1;fillColor=#B0011F;fontColor=#ffffff;whiteSpace=wrap;align=left;verticalAlign=middle;fontStyle=0;fontSize=14;spacingLeft=10;labelBackgroundColor=#94011A;fontFamily=Verdana;" vertex="1" parent="553">
                    <mxGeometry x="390" y="18.231976047904187" width="80" height="33.532934131736525" as="geometry"/>
                </mxCell>
                <mxCell id="561" value="" style="shape=triangle;direction=south;fillColor=#ffffff;strokeColor=none;perimeter=none;labelBackgroundColor=#94011A;fontFamily=Verdana;fontColor=#F3F8FC;" vertex="1" parent="560">
                    <mxGeometry x="1" y="0.5" width="10" height="5" relative="1" as="geometry">
                        <mxPoint x="-17" y="-2.5" as="offset"/>
                    </mxGeometry>
                </mxCell>
                <mxCell id="562" value="" style="html=1;verticalLabelPosition=bottom;align=center;labelBackgroundColor=#ffffff;verticalAlign=top;strokeWidth=2;strokeColor=#0080F0;shadow=0;dashed=0;shape=mxgraph.ios7.icons.shopping_cart;fillColor=#FFFFFF;" vertex="1" parent="560">
                    <mxGeometry x="16.515324675324564" y="6.077844311377245" width="29.61038961038961" height="21.377245508982035" as="geometry"/>
                </mxCell>
                <mxCell id="573" value="colonia  " style="fillColor=none;strokeColor=none;align=left;fontSize=14;labelBackgroundColor=#94011A;fontFamily=Times New Roman;fontColor=#F3F8FC;" vertex="1" parent="550">
                    <mxGeometry x="46" y="360" width="104" height="40" as="geometry"/>
                </mxCell>
                <mxCell id="574" value="" style="html=1;shadow=0;dashed=0;shape=mxgraph.bootstrap.rrect;rSize=5;fillColor=#b0e3e6;strokeColor=#0e8088;align=left;spacing=15;fontSize=14;labelBackgroundColor=#B0011F;fontFamily=Times New Roman;" vertex="1" parent="550">
                    <mxGeometry x="51.5" y="393" width="228.5" height="30" as="geometry"/>
                </mxCell>
                <mxCell id="579" value="Numero" style="fillColor=none;strokeColor=none;align=left;fontSize=14;labelBackgroundColor=#94011A;fontFamily=Times New Roman;fontColor=#F3F8FC;" vertex="1" parent="550">
                    <mxGeometry x="306" y="360" width="260" height="40" as="geometry"/>
                </mxCell>
                <mxCell id="580" value="" style="html=1;shadow=0;dashed=0;shape=mxgraph.bootstrap.rrect;rSize=5;fillColor=#b0e3e6;strokeColor=#0e8088;align=left;spacing=15;fontSize=14;labelBackgroundColor=#B0011F;fontFamily=Times New Roman;" vertex="1" parent="550">
                    <mxGeometry x="306" y="393" width="129" height="30" as="geometry"/>
                </mxCell>
                <mxCell id="571" value="" style="html=1;shadow=0;dashed=0;shape=mxgraph.bootstrap.rrect;rSize=5;fillColor=#b0e3e6;strokeColor=#0e8088;align=left;spacing=15;fontSize=14;labelBackgroundColor=#B0011F;fontFamily=Times New Roman;" vertex="1" parent="550">
                    <mxGeometry x="46" y="250" width="659" height="30" as="geometry"/>
                </mxCell>
                <mxCell id="582" value="&lt;span style=&quot;&quot;&gt;Confirmar compra&amp;nbsp;&lt;/span&gt;" style="html=1;shadow=0;dashed=0;shape=mxgraph.bootstrap.rrect;rSize=5;strokeColor=none;strokeWidth=1;fillColor=#94011A;fontColor=#FFFFFF;whiteSpace=wrap;align=center;verticalAlign=middle;spacingLeft=0;fontStyle=0;fontSize=16;spacing=5;labelBackgroundColor=#94011A;fontFamily=Verdana;" vertex="1" parent="550">
                    <mxGeometry x="46" y="670" width="140" height="60" as="geometry"/>
                </mxCell>
                <mxCell id="609" value="" style="verticalLabelPosition=bottom;shadow=0;dashed=0;align=center;html=1;verticalAlign=top;strokeWidth=1;shape=mxgraph.mockup.misc.map;labelBackgroundColor=#94011A;fontFamily=Times New Roman;fontSize=22;fontColor=#F3F8FC;fillColor=#94011A;gradientColor=#94011A;gradientDirection=north;" vertex="1" parent="550">
                    <mxGeometry x="100" y="500" width="610" height="170" as="geometry"/>
                </mxCell>
                <mxCell id="610" value="Nombre  destinatario " style="fillColor=none;strokeColor=none;align=left;fontSize=14;labelBackgroundColor=#94011A;fontFamily=Times New Roman;fontColor=#F3F8FC;" vertex="1" parent="550">
                    <mxGeometry x="46" y="220" width="260" height="40" as="geometry"/>
                </mxCell>
                <mxCell id="611" value="Direccion de envio" style="text;html=1;strokeColor=none;fillColor=none;align=center;verticalAlign=middle;whiteSpace=wrap;rounded=0;labelBackgroundColor=#94011A;fontFamily=Times New Roman;fontSize=22;fontColor=#F3F8FC;" vertex="1" parent="550">
                    <mxGeometry x="318" y="195" width="202" height="30" as="geometry"/>
                </mxCell>
                <mxCell id="612" value="Telefono/ celular " style="fillColor=none;strokeColor=none;align=left;fontSize=14;labelBackgroundColor=#94011A;fontFamily=Times New Roman;fontColor=#F3F8FC;" vertex="1" parent="550">
                    <mxGeometry x="46" y="297" width="260" height="40" as="geometry"/>
                </mxCell>
                <mxCell id="613" value="" style="html=1;shadow=0;dashed=0;shape=mxgraph.bootstrap.rrect;rSize=5;fillColor=#b0e3e6;strokeColor=#0e8088;align=left;spacing=15;fontSize=14;labelBackgroundColor=#B0011F;fontFamily=Times New Roman;" vertex="1" parent="550">
                    <mxGeometry x="51.5" y="330" width="129" height="30" as="geometry"/>
                </mxCell>
                <mxCell id="614" value="Calle" style="fillColor=none;strokeColor=none;align=left;fontSize=14;labelBackgroundColor=#94011A;fontFamily=Times New Roman;fontColor=#F3F8FC;" vertex="1" parent="550">
                    <mxGeometry x="202" y="297" width="260" height="40" as="geometry"/>
                </mxCell>
                <mxCell id="615" value="" style="html=1;shadow=0;dashed=0;shape=mxgraph.bootstrap.rrect;rSize=5;fillColor=#b0e3e6;strokeColor=#0e8088;align=left;spacing=15;fontSize=14;labelBackgroundColor=#B0011F;fontFamily=Times New Roman;" vertex="1" parent="550">
                    <mxGeometry x="202" y="330" width="498" height="30" as="geometry"/>
                </mxCell>
                <mxCell id="616" value="codigo postal " style="fillColor=none;strokeColor=none;align=left;fontSize=14;labelBackgroundColor=#94011A;fontFamily=Times New Roman;fontColor=#F3F8FC;" vertex="1" parent="550">
                    <mxGeometry x="456" y="360" width="104" height="40" as="geometry"/>
                </mxCell>
                <mxCell id="617" value="" style="html=1;shadow=0;dashed=0;shape=mxgraph.bootstrap.rrect;rSize=5;fillColor=#b0e3e6;strokeColor=#0e8088;align=left;spacing=15;fontSize=14;labelBackgroundColor=#B0011F;fontFamily=Times New Roman;" vertex="1" parent="550">
                    <mxGeometry x="461.5" y="393" width="129" height="30" as="geometry"/>
                </mxCell>
                <mxCell id="618" value="Ciudad" style="fillColor=none;strokeColor=none;align=left;fontSize=14;labelBackgroundColor=#94011A;fontFamily=Times New Roman;fontColor=#F3F8FC;" vertex="1" parent="550">
                    <mxGeometry x="51.5" y="420" width="104" height="40" as="geometry"/>
                </mxCell>
                <mxCell id="619" value="" style="html=1;shadow=0;dashed=0;shape=mxgraph.bootstrap.rrect;rSize=5;fillColor=#b0e3e6;strokeColor=#0e8088;align=left;spacing=15;fontSize=14;labelBackgroundColor=#B0011F;fontFamily=Times New Roman;" vertex="1" parent="550">
                    <mxGeometry x="51.5" y="460" width="228.5" height="30" as="geometry"/>
                </mxCell>
                <mxCell id="620" value="Estado" style="fillColor=none;strokeColor=none;align=left;fontSize=14;labelBackgroundColor=#94011A;fontFamily=Times New Roman;fontColor=#F3F8FC;" vertex="1" parent="550">
                    <mxGeometry x="306" y="420" width="104" height="40" as="geometry"/>
                </mxCell>
                <mxCell id="621" value="" style="html=1;shadow=0;dashed=0;shape=mxgraph.bootstrap.rrect;rSize=5;fillColor=#b0e3e6;strokeColor=#0e8088;align=left;spacing=15;fontSize=14;labelBackgroundColor=#B0011F;fontFamily=Times New Roman;" vertex="1" parent="550">
                    <mxGeometry x="306" y="460" width="228.5" height="30" as="geometry"/>
                </mxCell>
                <mxCell id="583" value="" style="strokeWidth=1;shadow=0;dashed=0;align=center;html=1;shape=mxgraph.mockup.containers.browserWindow;rSize=0;strokeColor=#333333;strokeColor2=#008cff;strokeColor3=#c4c4c4;mainText=,;recursiveResize=0;labelBackgroundColor=#333333;labelBorderColor=#CCCCFF;fontFamily=Tahoma;fontSize=16;fontColor=#EEF3F7;fillColor=#333333;gradientColor=#3333FF;gradientDirection=radial;" vertex="1" parent="1">
                    <mxGeometry x="1688" y="60" width="760" height="640" as="geometry"/>
                </mxCell>
                <mxCell id="584" value="Page 1" style="strokeWidth=1;shadow=0;dashed=0;align=center;html=1;shape=mxgraph.mockup.containers.anchor;fontSize=17;fontColor=#666666;align=left;labelBackgroundColor=#333333;labelBorderColor=#94011A;fontFamily=Tahoma;fillColor=#94011A;gradientColor=#94011A;gradientDirection=radial;" vertex="1" parent="583">
                    <mxGeometry x="60" y="12" width="110" height="26" as="geometry"/>
                </mxCell>
                <mxCell id="585" value="https://www.draw.io" style="strokeWidth=1;shadow=0;dashed=0;align=center;html=1;shape=mxgraph.mockup.containers.anchor;rSize=0;fontSize=17;fontColor=#666666;align=left;labelBackgroundColor=#333333;labelBorderColor=#94011A;fontFamily=Tahoma;fillColor=#94011A;gradientColor=#94011A;gradientDirection=radial;" vertex="1" parent="583">
                    <mxGeometry x="130" y="60" width="250" height="26" as="geometry"/>
                </mxCell>
                <mxCell id="586" value="Bichos &lt;br&gt;company" style="html=1;shadow=0;dashed=0;fillColor=#a20025;strokeColor=#6F0000;fontSize=16;fontColor=#ffffff;align=left;spacing=15;" vertex="1" parent="583">
                    <mxGeometry y="110" width="760" height="70" as="geometry"/>
                </mxCell>
                <mxCell id="587" value="Inicio " style="fillColor=none;strokeColor=none;fontSize=14;fontColor=#ffffff;align=center;" vertex="1" parent="586">
                    <mxGeometry width="70" height="40" relative="1" as="geometry">
                        <mxPoint x="70" y="10" as="offset"/>
                    </mxGeometry>
                </mxCell>
                <mxCell id="588" value="Compras" style="fillColor=none;strokeColor=none;fontSize=14;fontColor=#F5FAFF;align=center;" vertex="1" parent="586">
                    <mxGeometry width="70" height="40" relative="1" as="geometry">
                        <mxPoint x="140" y="10" as="offset"/>
                    </mxGeometry>
                </mxCell>
                <mxCell id="589" value="Iniciar secion " style="fillColor=none;strokeColor=none;fontSize=14;fontColor=#F3F8FC;align=center;spacingRight=0;" vertex="1" parent="586">
                    <mxGeometry width="80" height="40" relative="1" as="geometry">
                        <mxPoint x="220" y="10" as="offset"/>
                    </mxGeometry>
                </mxCell>
                <mxCell id="590" value="About" style="fillColor=none;strokeColor=none;fontSize=14;fontColor=#EEF3F7;align=center;" vertex="1" parent="586">
                    <mxGeometry width="80" height="40" relative="1" as="geometry">
                        <mxPoint x="310" y="10" as="offset"/>
                    </mxGeometry>
                </mxCell>
                <mxCell id="591" value="&lt;font color=&quot;#ffffff&quot;&gt;Busqueda&lt;/font&gt;" style="html=1;shadow=0;dashed=0;shape=mxgraph.bootstrap.rrect;rSize=5;fontSize=14;fontColor=#1CA5B8;strokeColor=#FFFFFF;fillColor=none;" vertex="1" parent="586">
                    <mxGeometry x="1" width="70" height="40" relative="1" as="geometry">
                        <mxPoint x="-80" y="10" as="offset"/>
                    </mxGeometry>
                </mxCell>
                <mxCell id="592" value="Busqueda" style="html=1;shadow=0;dashed=0;shape=mxgraph.bootstrap.rrect;rSize=5;fontSize=14;fontColor=#6C767D;strokeColor=#CED4DA;fillColor=#ffffff;align=left;spacing=10;" vertex="1" parent="586">
                    <mxGeometry x="1" width="180" height="40" relative="1" as="geometry">
                        <mxPoint x="-270" y="10" as="offset"/>
                    </mxGeometry>
                </mxCell>
                <mxCell id="593" value="" style="html=1;shadow=0;dashed=0;shape=mxgraph.bootstrap.rrect;rSize=5;strokeColor=#000000;strokeWidth=1;fillColor=#B0011F;fontColor=#ffffff;whiteSpace=wrap;align=left;verticalAlign=middle;fontStyle=0;fontSize=14;spacingLeft=10;labelBackgroundColor=#94011A;fontFamily=Verdana;" vertex="1" parent="586">
                    <mxGeometry x="390" y="18.231976047904187" width="80" height="33.532934131736525" as="geometry"/>
                </mxCell>
                <mxCell id="594" value="" style="shape=triangle;direction=south;fillColor=#ffffff;strokeColor=none;perimeter=none;labelBackgroundColor=#94011A;fontFamily=Verdana;fontColor=#F3F8FC;" vertex="1" parent="593">
                    <mxGeometry x="1" y="0.5" width="10" height="5" relative="1" as="geometry">
                        <mxPoint x="-17" y="-2.5" as="offset"/>
                    </mxGeometry>
                </mxCell>
                <mxCell id="595" value="" style="html=1;verticalLabelPosition=bottom;align=center;labelBackgroundColor=#ffffff;verticalAlign=top;strokeWidth=2;strokeColor=#0080F0;shadow=0;dashed=0;shape=mxgraph.ios7.icons.shopping_cart;fillColor=#FFFFFF;" vertex="1" parent="593">
                    <mxGeometry x="16.515324675324564" y="6.077844311377245" width="29.61038961038961" height="21.377245508982035" as="geometry"/>
                </mxCell>
                <mxCell id="596" value="Fecha de caducidad" style="fillColor=none;strokeColor=none;align=left;fontSize=14;labelBackgroundColor=#94011A;fontFamily=Times New Roman;fontColor=#F3F8FC;" vertex="1" parent="583">
                    <mxGeometry x="50.5" y="290" width="260" height="40" as="geometry"/>
                </mxCell>
                <mxCell id="597" value="&lt;font color=&quot;#333333&quot;&gt;&lt;span style=&quot;background-color: rgb(243 , 248 , 252)&quot;&gt;MM/AA&lt;/span&gt;&lt;/font&gt;" style="html=1;shadow=0;dashed=0;shape=mxgraph.bootstrap.rrect;rSize=5;fillColor=#b0e3e6;strokeColor=#0e8088;align=left;spacing=15;fontSize=14;labelBackgroundColor=#B0011F;fontFamily=Times New Roman;" vertex="1" parent="583">
                    <mxGeometry x="51.5" y="333" width="129" height="30" as="geometry"/>
                </mxCell>
                <mxCell id="598" value="Titular de la Tarjeta " style="fillColor=none;strokeColor=none;align=left;fontSize=14;labelBackgroundColor=#94011A;fontFamily=Times New Roman;fontColor=#F3F8FC;" vertex="1" parent="583">
                    <mxGeometry x="50.5" y="380" width="260" height="40" as="geometry"/>
                </mxCell>
                <mxCell id="599" value="&lt;font color=&quot;#333333&quot;&gt;&lt;span style=&quot;background-color: rgb(243 , 248 , 252)&quot;&gt;Nombre y apellido&lt;/span&gt;&lt;/font&gt;" style="html=1;shadow=0;dashed=0;shape=mxgraph.bootstrap.rrect;rSize=5;fillColor=#b0e3e6;strokeColor=#0e8088;align=left;spacing=15;fontSize=14;labelBackgroundColor=#B0011F;fontFamily=Times New Roman;" vertex="1" parent="583">
                    <mxGeometry x="51.5" y="423" width="658" height="30" as="geometry"/>
                </mxCell>
                <mxCell id="600" value="Emizor de la tarjeta " style="fillColor=none;strokeColor=none;align=left;fontSize=14;labelBackgroundColor=#94011A;fontFamily=Times New Roman;fontColor=#F3F8FC;" vertex="1" parent="583">
                    <mxGeometry x="50.5" y="453" width="260" height="40" as="geometry"/>
                </mxCell>
                <mxCell id="601" value="&lt;font color=&quot;#333333&quot;&gt;&lt;span style=&quot;background-color: rgb(243 , 248 , 252)&quot;&gt;Nombre del banco&lt;/span&gt;&lt;/font&gt;" style="html=1;shadow=0;dashed=0;shape=mxgraph.bootstrap.rrect;rSize=5;fillColor=#b0e3e6;strokeColor=#0e8088;align=left;spacing=15;fontSize=14;labelBackgroundColor=#B0011F;fontFamily=Times New Roman;" vertex="1" parent="583">
                    <mxGeometry x="50.5" y="493" width="658" height="30" as="geometry"/>
                </mxCell>
                <mxCell id="602" value="CVV" style="fillColor=none;strokeColor=none;align=left;fontSize=14;labelBackgroundColor=#94011A;fontFamily=Times New Roman;fontColor=#F3F8FC;" vertex="1" parent="583">
                    <mxGeometry x="339.5" y="290" width="260" height="40" as="geometry"/>
                </mxCell>
                <mxCell id="603" value="&lt;font color=&quot;#333333&quot;&gt;&lt;span style=&quot;background-color: rgb(243 , 248 , 252)&quot;&gt;XXX&lt;/span&gt;&lt;/font&gt;" style="html=1;shadow=0;dashed=0;shape=mxgraph.bootstrap.rrect;rSize=5;fillColor=#b0e3e6;strokeColor=#0e8088;align=left;spacing=15;fontSize=14;labelBackgroundColor=#B0011F;fontFamily=Times New Roman;" vertex="1" parent="583">
                    <mxGeometry x="340.5" y="333" width="129" height="30" as="geometry"/>
                </mxCell>
                <mxCell id="606" value="&lt;font color=&quot;#333333&quot;&gt;&lt;span style=&quot;background-color: rgb(243 , 248 , 252)&quot;&gt;XXXX-XXXX-XXXX-XXXX&lt;/span&gt;&lt;/font&gt;" style="html=1;shadow=0;dashed=0;shape=mxgraph.bootstrap.rrect;rSize=5;fillColor=#b0e3e6;strokeColor=#0e8088;align=left;spacing=15;fontSize=14;labelBackgroundColor=#B0011F;fontFamily=Times New Roman;" vertex="1" parent="583">
                    <mxGeometry x="50.5" y="250" width="659" height="30" as="geometry"/>
                </mxCell>
                <mxCell id="607" value="Numero de la tarjeta" style="fillColor=none;strokeColor=none;align=left;fontSize=14;labelBackgroundColor=#94011A;fontFamily=Times New Roman;fontColor=#F3F8FC;" vertex="1" parent="583">
                    <mxGeometry x="51.5" y="200" width="260" height="40" as="geometry"/>
                </mxCell>
                <mxCell id="608" value="&lt;span style=&quot;background-color: rgb(148 , 1 , 26)&quot;&gt;continuar&lt;/span&gt;" style="html=1;shadow=0;dashed=0;shape=mxgraph.bootstrap.rrect;rSize=5;strokeColor=none;strokeWidth=1;fillColor=#94011A;fontColor=#FFFFFF;whiteSpace=wrap;align=center;verticalAlign=middle;spacingLeft=0;fontStyle=0;fontSize=16;spacing=5;labelBackgroundColor=#333333;fontFamily=Verdana;" vertex="1" parent="583">
                    <mxGeometry x="50.5" y="560" width="140" height="40" as="geometry"/>
                </mxCell>
            </root>
        </mxGraphModel>
    </diagram>
</mxfile>